<svg width="41" height="32" viewBox="0 0 41 32" fill="none" xmlns="http://www.w3.org/2000/svg">
<path d="M12.338 20L15.679 11.42H16.914L20.242 20H19.137L16.693 13.604L16.29 12.408H16.264L15.887 13.565L13.43 20H12.338ZM13.976 17.621V16.646H18.565V17.621H13.976ZM22.939 10.51V18.349C22.939 18.6783 22.9997 18.908 23.121 19.038C23.2424 19.1593 23.4374 19.22 23.706 19.22C23.8794 19.22 24.0224 19.207 24.135 19.181C24.2477 19.155 24.3994 19.1073 24.59 19.038L24.421 19.948C24.2824 20.0087 24.1307 20.052 23.966 20.078C23.8014 20.1127 23.6324 20.13 23.459 20.13C22.9304 20.13 22.536 19.987 22.276 19.701C22.0247 19.415 21.899 18.9773 21.899 18.388V10.51H22.939ZM27.0727 10.51V18.349C27.0727 18.6783 27.1333 18.908 27.2547 19.038C27.376 19.1593 27.571 19.22 27.8397 19.22C28.013 19.22 28.156 19.207 28.2687 19.181C28.3813 19.155 28.533 19.1073 28.7237 19.038L28.5547 19.948C28.416 20.0087 28.2643 20.052 28.0997 20.078C27.935 20.1127 27.766 20.13 27.5927 20.13C27.064 20.13 26.6697 19.987 26.4097 19.701C26.1583 19.415 26.0327 18.9773 26.0327 18.388V10.51H27.0727Z" fill="white"/>
<rect x="0.5" y="0.5" width="40" height="31" rx="15.5" stroke="white" stroke-opacity="0.26"/>
</svg>
