<svg width="42" height="33" viewBox="0 0 42 33" fill="none" xmlns="http://www.w3.org/2000/svg">
<g filter="url(#filter0_b_1372_27463)">
<rect x="0.888916" y="0.5" width="41" height="32" rx="16" fill="white" fill-opacity="0.25"/>
<path d="M13.2269 20.5L16.5679 11.92H17.8029L21.1309 20.5H20.0259L17.5819 14.104L17.1789 12.908H17.1529L16.7759 14.065L14.3189 20.5H13.2269ZM14.8649 18.121V17.146H19.4539V18.121H14.8649ZM23.8279 11.01V18.849C23.8279 19.1783 23.8886 19.408 24.0099 19.538C24.1313 19.6593 24.3263 19.72 24.5949 19.72C24.7683 19.72 24.9113 19.707 25.0239 19.681C25.1366 19.655 25.2883 19.6073 25.4789 19.538L25.3099 20.448C25.1713 20.5087 25.0196 20.552 24.8549 20.578C24.6903 20.6127 24.5213 20.63 24.3479 20.63C23.8193 20.63 23.4249 20.487 23.1649 20.201C22.9136 19.915 22.7879 19.4773 22.7879 18.888V11.01H23.8279ZM27.9616 11.01V18.849C27.9616 19.1783 28.0222 19.408 28.1436 19.538C28.2649 19.6593 28.4599 19.72 28.7286 19.72C28.9019 19.72 29.0449 19.707 29.1576 19.681C29.2702 19.655 29.4219 19.6073 29.6126 19.538L29.4436 20.448C29.3049 20.5087 29.1532 20.552 28.9886 20.578C28.8239 20.6127 28.6549 20.63 28.4816 20.63C27.9529 20.63 27.5586 20.487 27.2986 20.201C27.0472 19.915 26.9216 19.4773 26.9216 18.888V11.01H27.9616Z" fill="white"/>
</g>
<defs>
<filter id="filter0_b_1372_27463" x="-7.11108" y="-7.5" width="57" height="48" filterUnits="userSpaceOnUse" color-interpolation-filters="sRGB">
<feFlood flood-opacity="0" result="BackgroundImageFix"/>
<feGaussianBlur in="BackgroundImageFix" stdDeviation="4"/>
<feComposite in2="SourceAlpha" operator="in" result="effect1_backgroundBlur_1372_27463"/>
<feBlend mode="normal" in="SourceGraphic" in2="effect1_backgroundBlur_1372_27463" result="shape"/>
</filter>
</defs>
</svg>
