<svg width="88" height="32" viewBox="0 0 88 32" fill="none" xmlns="http://www.w3.org/2000/svg">
<path d="M23.0672 16.6623V16.6623L23.0648 16.6623C22.3604 16.6851 21.816 17.2757 21.8387 17.9786L21.8387 17.9786L21.8389 17.9812C21.8599 18.2973 21.9799 18.5764 22.1644 18.7798C21.4462 20.1703 20.3544 21.1934 18.7175 22.0539L18.7173 22.054C17.5984 22.6451 16.4391 22.8556 15.2804 22.7082C14.3369 22.5823 13.6104 22.1646 13.1544 21.4809C12.4859 20.4569 12.4233 19.3534 12.9879 18.2453L12.9881 18.2448C13.3871 17.4468 14.0184 16.8571 14.418 16.5627C14.4436 16.5438 14.4546 16.5107 14.4452 16.4802C14.3602 16.2039 14.2329 15.737 14.1695 15.3991C14.1648 15.3739 14.1475 15.3528 14.1236 15.3433C14.0997 15.3338 14.0726 15.3371 14.0518 15.3522C10.9191 17.6208 11.2364 20.6999 12.1962 22.1615L12.1962 22.1616C12.9185 23.256 14.3767 23.9256 15.9755 23.9256C16.4071 23.9256 16.8399 23.8824 17.2734 23.7743C20.0159 23.2381 22.0996 21.6134 23.2875 19.1994C23.9257 19.112 24.4032 18.5537 24.381 17.8883C24.3583 17.2067 23.7908 16.6623 23.1099 16.6623H23.0672ZM18.8592 15.2848H18.9019L18.8164 12.8923C18.1543 12.9137 17.6417 13.469 17.663 14.1313C17.6844 14.7721 18.2184 15.2848 18.8592 15.2848ZM18.8164 12.8173V12.8173L18.814 12.8173C18.1098 12.8401 17.5654 13.4307 17.588 14.1337L17.5881 14.1338C17.6108 14.8153 18.1782 15.3598 18.8592 15.3598H18.9019V15.3598L18.9053 15.3597C19.3869 15.3378 19.8049 15.0418 19.9972 14.6335H20.333C21.9413 14.6335 23.4649 15.0988 24.8415 16.0095L24.8415 16.0095C25.8979 16.7068 26.656 17.6134 27.077 18.7081L27.077 18.7081L27.0775 18.7093C27.4335 19.5889 27.4108 20.4415 27.0377 21.1672C26.4526 22.2745 25.4742 22.8784 24.1779 22.8784C23.3366 22.8784 22.5356 22.6255 22.1153 22.4364C22.0881 22.4241 22.0562 22.4292 22.0341 22.4493C21.8017 22.6606 21.3768 23.0006 21.0797 23.2128C21.058 23.2283 21.0462 23.2542 21.0486 23.2808C21.0511 23.3073 21.0675 23.3306 21.0917 23.3418C22.0182 23.7727 22.9688 24.011 23.8788 24.011C25.9565 24.011 27.4996 22.864 28.0896 21.7058L28.0899 21.7053C28.7237 20.4374 28.6747 18.2689 27.0541 16.4318C25.4151 14.5126 23.0012 13.4582 20.2476 13.4582H19.9512C19.7385 13.0714 19.3198 12.8173 18.8592 12.8173H18.8164ZM15.3707 11.4149C14.3853 14.1576 15.019 16.7917 16.2078 18.8706C16.1067 19.035 16.051 19.2673 16.0715 19.4976C16.0954 20.1781 16.6624 20.7213 17.3426 20.7213H17.3853V20.7213L17.3877 20.7213C18.092 20.6986 18.6364 20.1079 18.6137 19.405L18.6137 19.4049C18.591 18.7233 18.0235 18.1789 17.3426 18.1789H17.2999H17.2988C17.2779 18.1789 17.2481 18.1789 17.2176 18.1819C17.2074 18.183 17.1962 18.1844 17.1847 18.1865C16.3389 16.7615 15.9889 15.213 16.1145 13.5387L16.1145 13.5381C16.1989 12.2708 16.6209 11.1751 17.3581 10.2694L17.3581 10.2694L17.3589 10.2683C17.6583 9.8864 18.0999 9.59929 18.5701 9.40491C19.04 9.21066 19.5328 9.11133 19.9289 9.10089C21.0243 9.08032 21.8097 9.75064 22.3335 10.5799C22.858 11.41 23.1104 12.3856 23.1418 12.9392C23.1437 12.9725 23.1673 13.0006 23.1998 13.0081C23.4735 13.0712 23.9402 13.2196 24.261 13.3266C24.2848 13.3345 24.311 13.33 24.3308 13.3146C24.3506 13.2992 24.3614 13.2749 24.3595 13.2499C24.101 9.76035 21.941 7.92561 19.8418 7.92561C17.8822 7.92561 16.0844 9.33945 15.3707 11.4149Z" fill="#764ABC" stroke="white" stroke-width="0.15" stroke-linejoin="round"/>
<path d="M40.654 11.42C41.5293 11.42 42.2313 11.6453 42.76 12.096C43.2887 12.5467 43.553 13.1577 43.553 13.929C43.553 14.7003 43.2843 15.3027 42.747 15.736C42.2183 16.1607 41.5163 16.373 40.641 16.373L40.55 16.438H38.444V20H37.404V11.42H40.654ZM40.641 15.463C41.2563 15.463 41.7113 15.3373 42.006 15.086C42.3093 14.826 42.461 14.4403 42.461 13.929C42.461 13.4177 42.3093 13.0363 42.006 12.785C41.7113 12.525 41.2563 12.395 40.641 12.395H38.444V15.463H40.641ZM41.239 15.671L44.073 20H42.838L40.368 16.243L41.239 15.671ZM48.5157 20.13C47.9004 20.13 47.35 19.9957 46.8647 19.727C46.388 19.4583 46.0154 19.0727 45.7467 18.57C45.478 18.0587 45.3437 17.452 45.3437 16.75C45.3437 16.048 45.478 15.4457 45.7467 14.943C46.0154 14.4317 46.3837 14.0417 46.8517 13.773C47.3197 13.5043 47.8527 13.37 48.4507 13.37C49.0574 13.37 49.573 13.5 49.9977 13.76C50.431 14.02 50.7604 14.3753 50.9857 14.826C51.211 15.268 51.3237 15.7663 51.3237 16.321C51.3237 16.4683 51.3194 16.6027 51.3107 16.724C51.302 16.8453 51.289 16.9537 51.2717 17.049H46.0197V16.126H50.8167L50.2837 16.23C50.2837 15.606 50.1104 15.125 49.7637 14.787C49.4257 14.449 48.9794 14.28 48.4247 14.28C48 14.28 47.6317 14.3797 47.3197 14.579C47.0164 14.7697 46.778 15.0513 46.6047 15.424C46.44 15.788 46.3577 16.23 46.3577 16.75C46.3577 17.2613 46.4444 17.7033 46.6177 18.076C46.791 18.4487 47.0337 18.7347 47.3457 18.934C47.6664 19.1247 48.0477 19.22 48.4897 19.22C48.9664 19.22 49.352 19.129 49.6467 18.947C49.95 18.765 50.1927 18.518 50.3747 18.206L51.1937 18.687C51.029 18.9817 50.8167 19.2373 50.5567 19.454C50.3054 19.6707 50.0064 19.8397 49.6597 19.961C49.3217 20.0737 48.9404 20.13 48.5157 20.13ZM55.9966 20.13C55.4593 20.13 54.9653 19.9957 54.5146 19.727C54.064 19.4583 53.7043 19.0727 53.4356 18.57C53.167 18.0587 53.0326 17.452 53.0326 16.75C53.0326 16.0307 53.1756 15.4197 53.4616 14.917C53.7476 14.4143 54.1246 14.033 54.5926 13.773C55.0606 13.5043 55.5633 13.37 56.1006 13.37C56.638 13.37 57.1016 13.5087 57.4916 13.786C57.8903 14.0633 58.1546 14.4317 58.2846 14.891L58.1546 14.982V10.51H59.1946V20H58.2846L58.1936 18.427L58.3366 18.349C58.276 18.7303 58.1286 19.0553 57.8946 19.324C57.6693 19.584 57.3876 19.7833 57.0496 19.922C56.7203 20.0607 56.3693 20.13 55.9966 20.13ZM56.1006 19.22C56.5166 19.22 56.8763 19.116 57.1796 18.908C57.4916 18.7 57.73 18.4053 57.8946 18.024C58.068 17.634 58.1546 17.179 58.1546 16.659C58.1546 16.165 58.068 15.7403 57.8946 15.385C57.73 15.0297 57.496 14.7567 57.1926 14.566C56.898 14.3753 56.5513 14.28 56.1526 14.28C55.494 14.28 54.9826 14.5053 54.6186 14.956C54.2546 15.4067 54.0726 16.0047 54.0726 16.75C54.0726 17.4953 54.2503 18.0933 54.6056 18.544C54.961 18.9947 55.4593 19.22 56.1006 19.22ZM64.125 20.13C63.709 20.13 63.3147 20.052 62.942 19.896C62.578 19.74 62.279 19.4887 62.045 19.142C61.8197 18.7867 61.707 18.3273 61.707 17.764V13.5H62.747V17.491C62.747 18.1497 62.89 18.6047 63.176 18.856C63.462 19.0987 63.865 19.22 64.385 19.22C64.6277 19.22 64.866 19.181 65.1 19.103C65.334 19.0163 65.542 18.8863 65.724 18.713C65.9147 18.531 66.062 18.3013 66.166 18.024C66.2787 17.7467 66.335 17.4173 66.335 17.036V13.5H67.375V20H66.465L66.4 19.012C66.1747 19.402 65.867 19.688 65.477 19.87C65.0957 20.0433 64.645 20.13 64.125 20.13ZM70.5794 13.5L72.5164 16.217L72.5814 16.308L75.2464 20H73.9724L71.9574 17.179L71.8404 17.036L69.2794 13.5H70.5794ZM75.2074 13.5L72.6334 16.971H72.5684L70.3324 20H69.1234L71.9574 16.269H72.0354L73.9854 13.5H75.2074Z" fill="white"/>
<rect x="0.5" y="0.5" width="87" height="31" rx="15.5" stroke="white" stroke-opacity="0.26"/>
</svg>
