<svg width="337" height="189" viewBox="0 0 337 189" fill="none" xmlns="http://www.w3.org/2000/svg">
<rect width="336" height="189" transform="translate(0.589844)" fill="#121212"/>
<path d="M121.921 62.4261C122.223 62.728 122.424 63.1305 122.424 63.533C122.424 63.9691 122.223 64.3716 121.921 64.6735C121.619 64.9754 121.217 65.1431 120.814 65.1431H107.934C107.498 65.1431 107.095 64.9754 106.793 64.6735C106.492 64.3716 106.324 63.9691 106.324 63.533C106.324 63.1305 106.492 62.728 106.793 62.4261C107.095 62.1243 107.498 61.923 107.934 61.923H120.814C121.217 61.923 121.619 62.1243 121.921 62.4261ZM121.72 66.3842C121.82 66.4848 121.887 66.619 121.887 66.7531V67.2898C121.887 67.86 121.653 68.4302 121.25 68.8328C120.848 69.2353 120.277 69.4365 119.741 69.4365H109.007C108.437 69.4365 107.867 69.2353 107.464 68.8328C107.062 68.4302 106.86 67.86 106.86 67.2898V66.7531C106.86 66.619 106.894 66.4848 106.995 66.3842C107.095 66.2835 107.229 66.2164 107.397 66.2164H121.351C121.485 66.2164 121.619 66.2835 121.72 66.3842ZM107.464 60.749C107.297 60.6819 107.196 60.5813 107.062 60.4471C106.961 60.313 106.894 60.1788 106.86 60.0111C106.827 59.8434 106.827 59.6757 106.86 59.508C107.598 56.6233 110.684 54.4095 114.374 54.4095C118.03 54.4095 121.116 56.6233 121.854 59.508C121.887 59.6757 121.887 59.8434 121.854 60.0111C121.82 60.1788 121.753 60.313 121.653 60.4471C121.519 60.5813 121.418 60.6819 121.25 60.749C121.116 60.8161 120.948 60.8497 120.781 60.8497H107.934C107.766 60.8497 107.598 60.8161 107.464 60.749ZM118.265 57.2606C118.164 57.3612 118.131 57.4954 118.131 57.6296C118.131 57.7637 118.131 57.8644 118.198 57.9315C118.265 58.0321 118.332 58.0992 118.433 58.1327C118.533 58.1663 118.667 58.1998 118.768 58.1663C118.869 58.1663 118.969 58.0992 119.036 58.0321C119.103 57.965 119.171 57.8644 119.171 57.7637C119.204 57.6296 119.171 57.529 119.137 57.4283C119.103 57.3277 119.036 57.2606 118.936 57.1935C118.869 57.1264 118.768 57.0929 118.667 57.0929C118.5 57.0929 118.366 57.16 118.265 57.2606ZM113.971 56.1873C113.871 56.2879 113.837 56.422 113.837 56.5562C113.837 56.6904 113.837 56.791 113.904 56.8581C113.971 56.9587 114.039 57.0258 114.139 57.0594C114.24 57.0929 114.374 57.1264 114.475 57.0929C114.575 57.0929 114.676 57.0258 114.743 56.9587C114.81 56.8916 114.877 56.791 114.877 56.6904C114.911 56.5898 114.877 56.4556 114.844 56.355C114.81 56.2543 114.743 56.1873 114.642 56.1202C114.575 56.0531 114.475 56.0195 114.374 56.0195C114.206 56.0195 114.072 56.0866 113.971 56.1873ZM109.678 57.2606C109.577 57.3612 109.544 57.4954 109.544 57.6296C109.544 57.7637 109.544 57.8644 109.611 57.9315C109.678 58.0321 109.745 58.0992 109.846 58.1327C109.946 58.1663 110.081 58.1998 110.181 58.1663C110.282 58.1663 110.382 58.0992 110.45 58.0321C110.517 57.965 110.584 57.8644 110.584 57.7637C110.617 57.6296 110.584 57.529 110.55 57.4283C110.517 57.3277 110.45 57.2606 110.349 57.1935C110.282 57.1264 110.181 57.0929 110.081 57.0929C109.913 57.0929 109.779 57.16 109.678 57.2606Z" fill="#FFA726"/>
<path d="M130.545 70.4187H128.167C128.112 70.4187 128.084 70.3845 128.084 70.3162L128.125 55.8889C128.125 55.8342 128.153 55.8069 128.208 55.8069H130.771C130.826 55.8069 130.874 55.8342 130.915 55.8889L132.832 58.6575L134.739 55.8889C134.78 55.8342 134.832 55.8069 134.893 55.8069H137.467C137.528 55.8069 137.559 55.8342 137.559 55.8889L137.6 70.3162C137.6 70.3845 137.573 70.4187 137.518 70.4187H135.139C135.084 70.4187 135.057 70.3845 135.057 70.3162L135.037 59.6008L132.832 62.8L130.648 59.6008L130.627 70.3162C130.627 70.3845 130.6 70.4187 130.545 70.4187ZM139.193 70.3162L141.797 55.8889C141.811 55.8342 141.845 55.8069 141.9 55.8069H144.945C145 55.8069 145.034 55.8342 145.048 55.8889L147.55 70.3162C147.557 70.3845 147.529 70.4187 147.468 70.4187H145.14C145.072 70.4187 145.034 70.3845 145.027 70.3162L144.802 68.7781H141.941L141.715 70.3162C141.709 70.3845 141.674 70.4187 141.613 70.4187H139.275C139.22 70.4187 139.193 70.3845 139.193 70.3162ZM143.305 60.6365L142.361 66.5325H144.381L143.52 60.6365L143.397 59.8572L143.305 60.6365ZM152.834 70.6238C152.075 70.6238 151.381 70.4324 150.753 70.0496C150.13 69.6667 149.635 69.1541 149.266 68.5115C148.903 67.8621 148.722 67.1409 148.722 66.3479L148.743 59.7957C148.743 59.0164 148.921 58.3123 149.276 57.6833C149.631 57.0476 150.12 56.5383 150.742 56.1555C151.371 55.7659 152.068 55.571 152.834 55.571C153.613 55.571 154.307 55.759 154.916 56.135C155.531 56.511 156.02 57.0203 156.382 57.6628C156.751 58.2986 156.936 59.0095 156.936 59.7957V60.7595C156.936 60.8142 156.908 60.8416 156.854 60.8416H154.495C154.441 60.8416 154.413 60.8142 154.413 60.7595V59.7957C154.413 59.3308 154.263 58.9309 153.962 58.5959C153.661 58.261 153.285 58.0935 152.834 58.0935C152.335 58.0935 151.952 58.2644 151.686 58.6062C151.419 58.948 151.286 59.3445 151.286 59.7957V66.3479C151.286 66.8606 151.436 67.281 151.737 67.6091C152.038 67.9304 152.403 68.0911 152.834 68.0911C153.285 68.0911 153.661 67.9133 153.962 67.5579C154.263 67.1956 154.413 66.7922 154.413 66.3479V65.3738C154.413 65.3191 154.441 65.2917 154.495 65.2917H156.874C156.929 65.2917 156.956 65.3191 156.956 65.3738V66.3479C156.956 67.134 156.772 67.8518 156.402 68.5012C156.026 69.1438 155.531 69.6599 154.916 70.0496C154.3 70.4324 153.607 70.6238 152.834 70.6238ZM161.482 70.4187H159.103C159.048 70.4187 159.021 70.3845 159.021 70.3162L159.062 55.8889C159.062 55.8342 159.089 55.8069 159.144 55.8069H163.389C164.148 55.8069 164.845 55.9915 165.481 56.3606C166.116 56.7297 166.622 57.2253 166.998 57.8474C167.381 58.4695 167.572 59.1736 167.572 59.9597C167.572 60.4724 167.494 60.9373 167.337 61.3542C167.179 61.7712 166.995 62.1233 166.783 62.4104C166.578 62.6975 166.39 62.9094 166.219 63.0461C166.978 63.887 167.357 64.8748 167.357 66.0095L167.378 70.3162C167.378 70.3845 167.343 70.4187 167.275 70.4187H164.896C164.841 70.4187 164.814 70.3982 164.814 70.3572V66.0095C164.814 65.5037 164.636 65.0662 164.281 64.697C163.925 64.3279 163.488 64.1433 162.968 64.1433H161.584L161.564 70.3162C161.564 70.3845 161.536 70.4187 161.482 70.4187ZM163.389 58.3191H161.584V61.6208H163.389C163.82 61.6208 164.202 61.4602 164.537 61.1389C164.879 60.8176 165.05 60.4246 165.05 59.9597C165.05 59.5154 164.886 59.1326 164.558 58.8113C164.23 58.4832 163.84 58.3191 163.389 58.3191ZM173.574 70.6238C172.829 70.6238 172.142 70.4324 171.513 70.0496C170.891 69.6667 170.389 69.1575 170.006 68.5217C169.63 67.8792 169.442 67.175 169.442 66.4094L169.463 59.7546C169.463 58.9753 169.651 58.2747 170.027 57.6526C170.396 57.0237 170.895 56.5212 171.524 56.1453C172.153 55.7624 172.836 55.571 173.574 55.571C174.34 55.571 175.027 55.759 175.635 56.135C176.251 56.511 176.743 57.0168 177.112 57.6526C177.488 58.2815 177.676 58.9822 177.676 59.7546L177.697 66.4094C177.697 67.175 177.512 67.8757 177.143 68.5115C176.767 69.1541 176.268 69.6667 175.646 70.0496C175.024 70.4324 174.333 70.6238 173.574 70.6238ZM173.574 68.0911C173.998 68.0911 174.367 67.9202 174.682 67.5784C174.996 67.2297 175.154 66.8401 175.154 66.4094L175.133 59.7546C175.133 59.2898 174.986 58.8967 174.692 58.5754C174.398 58.2541 174.026 58.0935 173.574 58.0935C173.144 58.0935 172.775 58.2507 172.467 58.5652C172.159 58.8796 172.006 59.2761 172.006 59.7546V66.4094C172.006 66.8674 172.159 67.2639 172.467 67.5989C172.775 67.927 173.144 68.0911 173.574 68.0911ZM189.68 70.3982L185.917 70.4187C185.848 70.4187 185.814 70.3845 185.814 70.3162L185.855 55.8889C185.855 55.8342 185.883 55.8069 185.937 55.8069L189.865 55.7864C190.644 55.7659 191.348 55.9436 191.977 56.3196C192.613 56.6956 193.119 57.2048 193.494 57.8474C193.877 58.4832 194.069 59.1873 194.069 59.9597V65.989C194.069 66.7957 193.874 67.5339 193.484 68.2039C193.088 68.8669 192.561 69.3967 191.905 69.7932C191.249 70.1829 190.507 70.3845 189.68 70.3982ZM189.865 58.2986L188.398 58.3191L188.378 67.8347H189.68C190.2 67.8347 190.637 67.6536 190.993 67.2913C191.348 66.929 191.526 66.4949 191.526 65.989V59.9392C191.526 59.4949 191.362 59.1086 191.034 58.7805C190.705 58.4456 190.316 58.2849 189.865 58.2986ZM195.549 70.3162L198.153 55.8889C198.167 55.8342 198.201 55.8069 198.256 55.8069H201.301C201.356 55.8069 201.39 55.8342 201.404 55.8889L203.906 70.3162C203.913 70.3845 203.885 70.4187 203.824 70.4187H201.496C201.428 70.4187 201.39 70.3845 201.383 70.3162L201.158 68.7781H198.297L198.071 70.3162C198.064 70.3845 198.03 70.4187 197.969 70.4187H195.631C195.576 70.4187 195.549 70.3845 195.549 70.3162ZM199.661 60.6365L198.717 66.5325H200.737L199.876 60.6365L199.753 59.8572L199.661 60.6365ZM209.621 70.3982L205.857 70.4187C205.789 70.4187 205.755 70.3845 205.755 70.3162L205.796 55.8889C205.796 55.8342 205.823 55.8069 205.878 55.8069L209.805 55.7864C210.584 55.7659 211.289 55.9436 211.917 56.3196C212.553 56.6956 213.059 57.2048 213.435 57.8474C213.818 58.4832 214.009 59.1873 214.009 59.9597V65.989C214.009 66.7957 213.814 67.5339 213.425 68.2039C213.028 68.8669 212.502 69.3967 211.846 69.7932C211.189 70.1829 210.448 70.3845 209.621 70.3982ZM209.805 58.2986L208.339 58.3191L208.318 67.8347H209.621C210.14 67.8347 210.578 67.6536 210.933 67.2913C211.289 66.929 211.466 66.4949 211.466 65.989V59.9392C211.466 59.4949 211.302 59.1086 210.974 58.7805C210.646 58.4456 210.256 58.2849 209.805 58.2986ZM220.063 70.3982L216.299 70.4187C216.231 70.4187 216.197 70.3845 216.197 70.3162L216.238 55.8889C216.238 55.8342 216.265 55.8069 216.32 55.8069L220.247 55.7864C221.026 55.7659 221.731 55.9436 222.359 56.3196C222.995 56.6956 223.501 57.2048 223.877 57.8474C224.26 58.4832 224.451 59.1873 224.451 59.9597V65.989C224.451 66.7957 224.256 67.5339 223.867 68.2039C223.47 68.8669 222.944 69.3967 222.288 69.7932C221.631 70.1829 220.89 70.3845 220.063 70.3982ZM220.247 58.2986L218.781 58.3191L218.76 67.8347H220.063C220.582 67.8347 221.02 67.6536 221.375 67.2913C221.731 66.929 221.908 66.4949 221.908 65.989V59.9392C221.908 59.4949 221.744 59.1086 221.416 58.7805C221.088 58.4456 220.698 58.2849 220.247 58.2986ZM231.017 70.4187H228.608C228.56 70.4187 228.536 70.3914 228.536 70.3367L228.556 64.3689L225.747 55.8889C225.733 55.8342 225.754 55.8069 225.808 55.8069H228.146C228.214 55.8069 228.255 55.8342 228.269 55.8889L229.817 61.5388L231.397 55.8889C231.41 55.8342 231.444 55.8069 231.499 55.8069H233.858C233.912 55.8069 233.933 55.8342 233.919 55.8889L231.079 64.2869L231.099 70.3367C231.099 70.3914 231.072 70.4187 231.017 70.4187Z" fill="white"/>
<path d="M34.4726 116.819H29.7148C29.6055 116.819 29.5508 116.75 29.5508 116.614L29.6328 87.7592C29.6328 87.6498 29.6875 87.5951 29.7969 87.5951H34.9238C35.0332 87.5951 35.1289 87.6498 35.2109 87.7592L39.0459 93.2963L42.8603 87.7592C42.9424 87.6498 43.0449 87.5951 43.168 87.5951H48.3154C48.4385 87.5951 48.5 87.6498 48.5 87.7592L48.582 116.614C48.582 116.75 48.5273 116.819 48.4179 116.819H43.6601C43.5508 116.819 43.4961 116.75 43.4961 116.614L43.4551 95.183L39.0459 101.581L34.6777 95.183L34.6367 116.614C34.6367 116.75 34.582 116.819 34.4726 116.819ZM51.4818 116.614L56.6908 87.7592C56.7181 87.6498 56.7865 87.5951 56.8959 87.5951H62.9867C63.0961 87.5951 63.1644 87.6498 63.1918 87.7592L68.1957 116.614C68.2093 116.75 68.1546 116.819 68.0316 116.819H63.3763C63.2396 116.819 63.1644 116.75 63.1507 116.614L62.6996 113.537H56.9779L56.5267 116.614C56.5131 116.75 56.4447 116.819 56.3217 116.819H51.6459C51.5365 116.819 51.4818 116.75 51.4818 116.614ZM59.7054 97.2543L57.8187 109.046H61.8588L60.1361 97.2543L59.89 95.6957L59.7054 97.2543ZM79.3396 117.229C77.822 117.229 76.4343 116.846 75.1765 116.08C73.9324 115.315 72.9412 114.289 72.2029 113.004C71.4783 111.705 71.116 110.263 71.116 108.677L71.157 95.5727C71.157 94.0141 71.5125 92.6059 72.2234 91.348C72.9343 90.0766 73.9119 89.058 75.156 88.2924C76.4138 87.5131 77.8083 87.1234 79.3396 87.1234C80.8982 87.1234 82.2859 87.4994 83.5027 88.2514C84.7331 89.0033 85.7107 90.0219 86.4353 91.307C87.1736 92.5785 87.5427 94.0004 87.5427 95.5727V97.5004C87.5427 97.6098 87.488 97.6644 87.3787 97.6644H82.6619C82.5525 97.6644 82.4978 97.6098 82.4978 97.5004V95.5727C82.4978 94.643 82.197 93.8432 81.5955 93.1732C80.9939 92.5033 80.2419 92.1684 79.3396 92.1684C78.3416 92.1684 77.5759 92.5102 77.0427 93.1937C76.5095 93.8773 76.2429 94.6703 76.2429 95.5727V108.677C76.2429 109.703 76.5437 110.543 77.1453 111.2C77.7468 111.842 78.4783 112.163 79.3396 112.163C80.2419 112.163 80.9939 111.808 81.5955 111.097C82.197 110.372 82.4978 109.566 82.4978 108.677V106.729C82.4978 106.62 82.5525 106.565 82.6619 106.565H87.4197C87.529 106.565 87.5837 106.62 87.5837 106.729V108.677C87.5837 110.249 87.2146 111.685 86.4763 112.984C85.7244 114.269 84.7331 115.301 83.5027 116.08C82.2722 116.846 80.8845 117.229 79.3396 117.229ZM96.3488 116.819H91.591C91.4816 116.819 91.4269 116.75 91.4269 116.614L91.5089 87.7592C91.5089 87.6498 91.5636 87.5951 91.673 87.5951H100.163C101.681 87.5951 103.075 87.9643 104.347 88.7025C105.618 89.4408 106.63 90.432 107.382 91.6762C108.148 92.9203 108.53 94.3285 108.53 95.9008C108.53 96.9262 108.373 97.8559 108.059 98.6898C107.744 99.5238 107.375 100.228 106.951 100.802C106.541 101.376 106.165 101.8 105.823 102.074C107.341 103.755 108.1 105.731 108.1 108L108.141 116.614C108.141 116.75 108.072 116.819 107.936 116.819H103.178C103.068 116.819 103.014 116.778 103.014 116.696V108C103.014 106.989 102.658 106.114 101.947 105.375C101.236 104.637 100.361 104.268 99.3224 104.268H96.5538L96.5128 116.614C96.5128 116.75 96.4581 116.819 96.3488 116.819ZM100.163 92.6195H96.5538V99.223H100.163C101.025 99.223 101.79 98.9018 102.46 98.2592C103.144 97.6166 103.485 96.8305 103.485 95.9008C103.485 95.0121 103.157 94.2465 102.501 93.6039C101.845 92.9477 101.066 92.6195 100.163 92.6195ZM120.249 117.229C118.758 117.229 117.384 116.846 116.126 116.08C114.882 115.315 113.877 114.296 113.112 113.025C112.36 111.74 111.984 110.331 111.984 108.8L112.025 95.4906C112.025 93.932 112.401 92.5307 113.153 91.2865C113.891 90.0287 114.889 89.0238 116.147 88.2719C117.405 87.5063 118.772 87.1234 120.249 87.1234C121.78 87.1234 123.154 87.4994 124.371 88.2514C125.601 89.0033 126.585 90.015 127.324 91.2865C128.076 92.5443 128.452 93.9457 128.452 95.4906L128.493 108.8C128.493 110.331 128.124 111.733 127.385 113.004C126.633 114.289 125.635 115.315 124.391 116.08C123.147 116.846 121.766 117.229 120.249 117.229ZM120.249 112.163C121.096 112.163 121.834 111.822 122.463 111.138C123.092 110.441 123.407 109.662 123.407 108.8L123.366 95.4906C123.366 94.5609 123.072 93.7748 122.484 93.1322C121.896 92.4896 121.151 92.1684 120.249 92.1684C119.387 92.1684 118.649 92.4828 118.034 93.1117C117.418 93.7406 117.111 94.5336 117.111 95.4906V108.8C117.111 109.716 117.418 110.509 118.034 111.179C118.649 111.835 119.387 112.163 120.249 112.163Z" fill="white"/>
<path d="M144.466 115.819H140.129C140.042 115.819 139.999 115.77 139.999 115.671L140.036 104.929L134.979 89.6651C134.954 89.5667 134.991 89.5175 135.09 89.5175H139.298C139.421 89.5175 139.495 89.5667 139.52 89.6651L142.307 99.835L145.149 89.6651C145.174 89.5667 145.235 89.5175 145.333 89.5175H149.579C149.677 89.5175 149.714 89.5667 149.689 89.6651L144.577 104.781L144.614 115.671C144.614 115.77 144.564 115.819 144.466 115.819ZM156.881 116.188C155.54 116.188 154.304 115.843 153.172 115.154C152.052 114.465 151.147 113.549 150.458 112.404C149.782 111.248 149.443 109.98 149.443 108.602L149.48 96.6234C149.48 95.2207 149.819 93.9595 150.495 92.8397C151.16 91.7077 152.058 90.8033 153.19 90.1266C154.322 89.4375 155.553 89.093 156.881 89.093C158.26 89.093 159.496 89.4313 160.591 90.1081C161.699 90.7849 162.585 91.6954 163.249 92.8397C163.926 93.9718 164.264 95.233 164.264 96.6234L164.301 108.602C164.301 109.98 163.969 111.241 163.304 112.386C162.628 113.542 161.729 114.465 160.61 115.154C159.49 115.843 158.247 116.188 156.881 116.188ZM156.881 111.629C157.644 111.629 158.309 111.321 158.875 110.706C159.441 110.079 159.724 109.377 159.724 108.602L159.687 96.6234C159.687 95.7867 159.422 95.0792 158.893 94.5009C158.364 93.9226 157.694 93.6334 156.881 93.6334C156.106 93.6334 155.442 93.9164 154.888 94.4824C154.334 95.0484 154.058 95.7621 154.058 96.6234V108.602C154.058 109.426 154.334 110.14 154.888 110.743C155.442 111.334 156.106 111.629 156.881 111.629ZM174.908 116.188C173.579 116.188 172.348 115.843 171.216 115.154C170.084 114.465 169.18 113.542 168.503 112.386C167.839 111.217 167.507 109.943 167.507 108.565L167.58 89.6651C167.58 89.5667 167.63 89.5175 167.728 89.5175H171.973C172.072 89.5175 172.121 89.5667 172.121 89.6651V108.565C172.121 109.414 172.391 110.14 172.933 110.743C173.474 111.334 174.133 111.629 174.908 111.629C175.72 111.629 176.397 111.334 176.938 110.743C177.479 110.14 177.75 109.414 177.75 108.565V89.6651C177.75 89.5667 177.799 89.5175 177.898 89.5175H182.143C182.241 89.5175 182.291 89.5667 182.291 89.6651L182.364 108.565C182.364 109.956 182.032 111.235 181.368 112.404C180.691 113.561 179.793 114.484 178.673 115.173C177.553 115.849 176.298 116.188 174.908 116.188ZM190.553 115.819H186.271C186.173 115.819 186.123 115.757 186.123 115.634L186.197 89.6651C186.197 89.5667 186.247 89.5175 186.345 89.5175H193.986C195.352 89.5175 196.607 89.8497 197.751 90.5142C198.896 91.1786 199.806 92.0707 200.483 93.1904C201.172 94.3102 201.517 95.5775 201.517 96.9926C201.517 97.9154 201.375 98.7521 201.092 99.5027C200.809 100.253 200.477 100.887 200.095 101.404C199.726 101.921 199.388 102.302 199.08 102.548C200.446 104.062 201.129 105.84 201.129 107.882L201.166 115.634C201.166 115.757 201.104 115.819 200.981 115.819H196.699C196.601 115.819 196.552 115.782 196.552 115.708V107.882C196.552 106.972 196.232 106.184 195.592 105.52C194.952 104.855 194.165 104.523 193.229 104.523H190.738L190.701 115.634C190.701 115.757 190.652 115.819 190.553 115.819ZM193.986 94.0394H190.738V99.9826H193.986C194.761 99.9826 195.45 99.6934 196.053 99.1151C196.669 98.5368 196.976 97.8293 196.976 96.9926C196.976 96.1928 196.681 95.5037 196.09 94.9254C195.5 94.3348 194.798 94.0394 193.986 94.0394Z" fill="white" fill-opacity="0.7"/>
<path d="M213.873 116.819H209.115C209.006 116.819 208.951 116.75 208.951 116.614L209.033 87.7592C209.033 87.6498 209.088 87.5951 209.197 87.5951H214.324C214.434 87.5951 214.529 87.6498 214.611 87.7592L218.446 93.2963L222.261 87.7592C222.343 87.6498 222.445 87.5951 222.568 87.5951H227.716C227.839 87.5951 227.9 87.6498 227.9 87.7592L227.982 116.614C227.982 116.75 227.928 116.819 227.818 116.819H223.061C222.951 116.819 222.896 116.75 222.896 116.614L222.855 95.183L218.446 101.581L214.078 95.183L214.037 116.614C214.037 116.75 213.982 116.819 213.873 116.819ZM230.882 116.614L236.091 87.7592C236.119 87.6498 236.187 87.5951 236.296 87.5951H242.387C242.496 87.5951 242.565 87.6498 242.592 87.7592L247.596 116.614C247.61 116.75 247.555 116.819 247.432 116.819H242.777C242.64 116.819 242.565 116.75 242.551 116.614L242.1 113.537H236.378L235.927 116.614C235.913 116.75 235.845 116.819 235.722 116.819H231.046C230.937 116.819 230.882 116.75 230.882 116.614ZM239.106 97.2543L237.219 109.046H241.259L239.536 97.2543L239.29 95.6957L239.106 97.2543ZM258.74 117.229C257.222 117.229 255.835 116.846 254.577 116.08C253.333 115.315 252.342 114.289 251.603 113.004C250.879 111.705 250.516 110.263 250.516 108.677L250.557 95.5727C250.557 94.0141 250.913 92.6059 251.624 91.348C252.335 90.0766 253.312 89.058 254.556 88.2924C255.814 87.5131 257.209 87.1234 258.74 87.1234C260.299 87.1234 261.686 87.4994 262.903 88.2514C264.134 89.0033 265.111 90.0219 265.836 91.307C266.574 92.5785 266.943 94.0004 266.943 95.5727V97.5004C266.943 97.6098 266.888 97.6644 266.779 97.6644H262.062C261.953 97.6644 261.898 97.6098 261.898 97.5004V95.5727C261.898 94.643 261.597 93.8432 260.996 93.1732C260.394 92.5033 259.642 92.1684 258.74 92.1684C257.742 92.1684 256.976 92.5102 256.443 93.1937C255.91 93.8773 255.643 94.6703 255.643 95.5727V108.677C255.643 109.703 255.944 110.543 256.546 111.2C257.147 111.842 257.879 112.163 258.74 112.163C259.642 112.163 260.394 111.808 260.996 111.097C261.597 110.372 261.898 109.566 261.898 108.677V106.729C261.898 106.62 261.953 106.565 262.062 106.565H266.82C266.929 106.565 266.984 106.62 266.984 106.729V108.677C266.984 110.249 266.615 111.685 265.877 112.984C265.125 114.269 264.134 115.301 262.903 116.08C261.673 116.846 260.285 117.229 258.74 117.229ZM275.749 116.819H270.991C270.882 116.819 270.827 116.75 270.827 116.614L270.868 87.7592C270.868 87.6498 270.937 87.5951 271.073 87.5951H275.749C275.886 87.5951 275.954 87.6498 275.954 87.7592L275.913 99.182H282.209V87.7592C282.209 87.6498 282.264 87.5951 282.373 87.5951H287.049C287.186 87.5951 287.254 87.6498 287.254 87.7592L287.336 116.614C287.336 116.75 287.268 116.819 287.131 116.819H282.414C282.277 116.819 282.209 116.75 282.209 116.614V104.268H275.913V116.614C275.913 116.75 275.859 116.819 275.749 116.819ZM299.321 117.229C297.831 117.229 296.457 116.846 295.199 116.08C293.955 115.315 292.95 114.296 292.184 113.025C291.432 111.74 291.056 110.331 291.056 108.8L291.097 95.4906C291.097 93.932 291.473 92.5307 292.225 91.2865C292.963 90.0287 293.961 89.0238 295.219 88.2719C296.477 87.5063 297.844 87.1234 299.321 87.1234C300.852 87.1234 302.226 87.4994 303.443 88.2514C304.673 89.0033 305.658 90.015 306.396 91.2865C307.148 92.5443 307.524 93.9457 307.524 95.4906L307.565 108.8C307.565 110.331 307.196 111.733 306.458 113.004C305.706 114.289 304.708 115.315 303.463 116.08C302.219 116.846 300.838 117.229 299.321 117.229ZM299.321 112.163C300.168 112.163 300.907 111.822 301.536 111.138C302.165 110.441 302.479 109.662 302.479 108.8L302.438 95.4906C302.438 94.5609 302.144 93.7748 301.556 93.1322C300.968 92.4896 300.223 92.1684 299.321 92.1684C298.459 92.1684 297.721 92.4828 297.106 93.1117C296.491 93.7406 296.183 94.5336 296.183 95.4906V108.8C296.183 109.716 296.491 110.509 297.106 111.179C297.721 111.835 298.459 112.163 299.321 112.163Z" fill="white"/>
</svg>
