<svg width="337" height="189" viewBox="0 0 337 189" fill="none" xmlns="http://www.w3.org/2000/svg">
<rect width="336" height="189" transform="translate(0.589844)" fill="#F8F8F8"/>
<rect width="168" height="189" transform="translate(0.589844)" fill="url(#paint0_linear_986_168927)"/>
<rect width="168" height="189" transform="translate(0.589844)" fill="white" fill-opacity="0.5"/>
<path fill-rule="evenodd" clip-rule="evenodd" d="M37.4992 31.5002C39.2376 31.5002 40.7355 31.8855 41.9931 32.6561C43.2691 33.4084 44.2492 34.4817 44.9335 35.8761C45.6362 37.2705 45.9876 38.9309 45.9876 40.8574C45.9876 42.7839 45.6362 44.4443 44.9335 45.8387C44.2492 47.2331 43.2691 48.3156 41.9931 49.0862C40.7355 49.8385 39.2376 50.2146 37.4992 50.2146C35.7609 50.2146 34.2537 49.8385 32.9777 49.0862C31.7201 48.3156 30.74 47.2331 30.0372 45.8387C29.353 44.4443 29.0109 42.7839 29.0109 40.8574C29.0109 38.9309 29.353 37.2705 30.0372 35.8761C30.74 34.4817 31.7201 33.4084 32.9777 32.6561C34.2537 31.8855 35.7609 31.5002 37.4992 31.5002ZM37.4992 33.5643C36.2417 33.5643 35.1506 33.8579 34.2259 34.445C33.3013 35.0138 32.5893 35.8486 32.09 36.9494C31.5907 38.0319 31.341 39.3346 31.341 40.8574C31.341 42.3803 31.5907 43.6921 32.09 44.7929C32.5893 45.8754 33.3013 46.7102 34.2259 47.2974C35.1506 47.8661 36.2417 48.1505 37.4992 48.1505C38.7753 48.1505 39.8664 47.8661 40.7725 47.2974C41.6972 46.7102 42.4092 45.8754 42.9085 44.7929C43.4078 43.6921 43.6575 42.3803 43.6575 40.8574C43.6575 39.3346 43.4078 38.0319 42.9085 36.9494C42.4092 35.8486 41.6972 35.0138 40.7725 34.445C39.8664 33.8579 38.7753 33.5643 37.4992 33.5643ZM19.6528 31.7755C20.8919 31.7755 21.9645 32.0048 22.8706 32.4635C23.7953 32.9038 24.5165 33.5368 25.0343 34.3624C25.5521 35.1881 25.811 36.1697 25.811 37.3072C25.811 38.4447 25.5521 39.4263 25.0343 40.252C24.5165 41.0776 23.7953 41.7197 22.8706 42.1784C21.9645 42.6188 20.8919 42.8389 19.6528 42.8389H15.4086V49.9394H13.1895V31.7755H19.6528ZM19.3199 40.7749C20.7624 40.7749 21.8165 40.4813 22.4823 39.8942C23.148 39.2887 23.4809 38.4264 23.4809 37.3072C23.4809 36.1697 23.148 35.3073 22.4823 34.7202C21.8165 34.1331 20.7624 33.8395 19.3199 33.8395H15.4086V40.7749H19.3199ZM60.9129 32.491C59.7478 31.8305 58.3608 31.5002 56.7519 31.5002C55.3465 31.5002 54.1259 31.7479 53.0903 32.2433C52.0732 32.7387 51.2872 33.3992 50.7324 34.2248C50.1961 35.0321 49.9279 35.922 49.9279 36.8944C49.9279 37.6099 50.0759 38.2796 50.3718 38.9034C50.6862 39.5089 51.1855 40.041 51.8697 40.4996C52.5725 40.94 53.4879 41.2886 54.616 41.5454L58.9156 42.5087C59.9882 42.7472 60.7187 43.105 61.1071 43.582C61.4954 44.0407 61.6896 44.5636 61.6896 45.1507C61.6896 45.7929 61.5047 46.3433 61.1348 46.802C60.7649 47.2423 60.2286 47.5817 59.5259 47.8203C58.8417 48.0404 58.028 48.1505 57.0848 48.1505C56.0677 48.1505 55.1615 48.0037 54.3663 47.7102C53.5896 47.4166 52.9238 47.0038 52.369 46.4717C51.8143 45.9397 51.3612 45.325 51.0098 44.6278L49.068 46.1965C49.5303 46.9488 50.1221 47.6276 50.8434 48.2331C51.5646 48.8385 52.4245 49.3247 53.4232 49.6917C54.4403 50.0403 55.6146 50.2146 56.9461 50.2146C58.3701 50.2146 59.6091 49.9944 60.6632 49.5541C61.7173 49.1138 62.531 48.4991 63.1043 47.7102C63.6961 46.9029 63.992 45.9855 63.992 44.9581C63.992 43.8022 63.6406 42.8389 62.9379 42.0683C62.2537 41.2794 61.0331 40.6923 59.2762 40.307L55.3095 39.4263C54.0889 39.1511 53.2752 38.775 52.8684 38.298C52.4615 37.8026 52.2581 37.2338 52.2581 36.5916C52.2581 36.0229 52.406 35.5183 52.7019 35.078C52.9978 34.6193 53.4601 34.2524 54.0889 33.9771C54.7362 33.7019 55.5499 33.5643 56.53 33.5643C57.7506 33.5643 58.7862 33.812 59.6369 34.3074C60.506 34.7844 61.2828 35.6101 61.967 36.7843L63.8256 35.3532C63.0489 34.0872 62.078 33.1332 60.9129 32.491ZM70.8611 31.7755V49.9394H68.6419V31.7755H70.8611ZM89.7213 33.8395V31.7755H74.7418V33.8395H81.122V49.9394H83.3411V33.8395H89.7213ZM95.8106 31.7755V49.9394H93.5914V31.7755H95.8106ZM119.787 31.7755V49.9394H133.047V47.8753H122.006V41.7656H130.273V39.7015H122.006V33.8395H132.631V31.7755H119.787ZM113.774 31.7756V49.9395H111.028L103.372 37.7752L101.43 34.3626L99.7995 31.7756H102.151L109.78 43.8849L111.749 47.3801H111.777L111.666 44.6004V31.7756H113.774Z" fill="black" fill-opacity="0.8"/>
<path d="M19.6533 51.7818C20.8924 51.7818 21.9651 52.0112 22.8713 52.4699C23.796 52.9103 24.5173 53.5433 25.0352 54.369C25.553 55.1947 25.8119 56.1763 25.8119 57.314C25.8119 58.4516 25.553 59.4332 25.0352 60.2589C24.5173 61.0846 23.796 61.7268 22.8713 62.1855C21.9651 62.6259 20.8924 62.8461 19.6533 62.8461H15.4088V69.947H13.1895V51.7818H19.6533ZM19.3204 60.7819C20.7629 60.7819 21.8171 60.4883 22.4829 59.9011C23.1487 59.2956 23.4816 58.4332 23.4816 57.314C23.4816 56.1763 23.1487 55.3139 22.4829 54.7268C21.8171 54.1396 20.7629 53.846 19.3204 53.846H15.4088V60.7819H19.3204Z" fill="black" fill-opacity="0.35"/>
<path d="M32.341 67.8828H42.8273V69.947H30.1216V51.7818H32.341V67.8828Z" fill="black" fill-opacity="0.35"/>
<path d="M44.4268 69.947L51.5564 51.7818H54.1919L61.2938 69.947H58.9357L53.7203 56.4057L52.8603 53.8736H52.8048L52.0003 56.3231L46.7571 69.947H44.4268ZM47.9223 64.9103V62.8461H57.7151V64.9103H47.9223Z" fill="black" fill-opacity="0.35"/>
<path d="M79.151 65.2956C78.7626 66.3232 78.2078 67.2131 77.4865 67.9654C76.7652 68.6993 75.9145 69.2589 74.9343 69.6443C73.9725 70.0296 72.9184 70.2223 71.7717 70.2223C70.0332 70.2223 68.5259 69.8461 67.2498 69.0938C65.9922 68.3232 65.012 67.2406 64.3092 65.8461C63.6249 64.4516 63.2827 62.791 63.2827 60.8644C63.2827 58.9378 63.6249 57.2773 64.3092 55.8828C65.012 54.4883 65.9922 53.4149 67.2498 52.6626C68.5259 51.8919 70.0147 51.5066 71.7162 51.5066C72.8999 51.5066 73.954 51.6717 74.8788 52.002C75.8035 52.3139 76.5895 52.791 77.2368 53.4332C77.9026 54.0571 78.4297 54.8277 78.8181 55.7451L76.6265 56.7635C76.2196 55.7176 75.6278 54.9286 74.851 54.3965C74.0928 53.846 73.1033 53.5708 71.8827 53.5708C70.6435 53.5708 69.5524 53.8644 68.6091 54.4516C67.6659 55.0204 66.9261 55.8461 66.3898 56.9286C65.872 58.0112 65.613 59.3231 65.613 60.8644C65.613 62.3874 65.8627 63.6993 66.3621 64.8002C66.8614 65.8828 67.5735 66.7177 68.4982 67.3048C69.4229 67.8736 70.5141 68.158 71.7717 68.158C72.9923 68.158 74.0558 67.8553 74.962 67.2498C75.8682 66.6259 76.5248 65.6993 76.9316 64.4699L79.151 65.2956Z" fill="black" fill-opacity="0.35"/>
<path d="M83.4106 69.947V51.7818H96.255V53.846H85.63V59.7085H93.897V61.7727H85.63V67.8828H96.6712V69.947H83.4106Z" fill="black" fill-opacity="0.35"/>
<path d="M15.4527 93.2365V99.3003H14.7177V93.2365H15.4527ZM17.6476 92.869C17.7946 92.869 17.9171 92.9089 18.0151 92.9885C18.1192 93.062 18.1989 93.1661 18.254 93.3009C18.3091 93.4295 18.3367 93.5826 18.3367 93.7602C18.3367 93.9624 18.2999 94.1614 18.2264 94.3574C18.159 94.5534 18.0519 94.7341 17.9049 94.8995C17.7579 95.0649 17.568 95.2027 17.3352 95.3129L16.9494 94.9546C17.1147 94.8995 17.2587 94.8229 17.3812 94.7249C17.5098 94.6269 17.6139 94.5167 17.6935 94.3942C17.7732 94.2717 17.8252 94.1461 17.8497 94.0175L17.813 93.9991C17.7885 94.0175 17.7579 94.0328 17.7211 94.045C17.6844 94.0573 17.6292 94.0634 17.5557 94.0634C17.4822 94.0634 17.4057 94.042 17.326 93.9991C17.2525 93.9562 17.1882 93.895 17.1331 93.8154C17.078 93.7296 17.0504 93.6194 17.0504 93.4846C17.0504 93.3744 17.078 93.2733 17.1331 93.1814C17.1882 93.0834 17.2587 93.0069 17.3444 92.9517C17.4363 92.8966 17.5374 92.869 17.6476 92.869ZM19.5505 99.3003V94.7065H20.1936L20.2396 95.4232C20.4049 95.1414 20.6193 94.9362 20.8827 94.8076C21.1522 94.679 21.4278 94.6147 21.7096 94.6147C22.0342 94.6147 22.3404 94.6882 22.6283 94.8352C22.9162 94.9822 23.1367 95.2088 23.2898 95.515C23.3878 95.3068 23.5256 95.1384 23.7032 95.0097C23.8809 94.875 24.0738 94.777 24.2821 94.7157C24.4964 94.6484 24.6986 94.6147 24.8884 94.6147C25.1824 94.6147 25.4611 94.6759 25.7245 94.7984C25.994 94.9209 26.2145 95.1108 26.386 95.368C26.5575 95.6253 26.6432 95.956 26.6432 96.3603V99.3003H25.9082V96.4338C25.9082 96.0173 25.8041 95.7172 25.5959 95.5334C25.3876 95.3497 25.1304 95.2578 24.8241 95.2578C24.5852 95.2578 24.3617 95.316 24.1534 95.4324C23.9452 95.5487 23.7767 95.7202 23.6481 95.9469C23.5256 96.1735 23.4644 96.4522 23.4644 96.7829V99.3003H22.7294V96.4338C22.7294 96.0173 22.6252 95.7172 22.417 95.5334C22.2087 95.3497 21.9515 95.2578 21.6452 95.2578C21.4431 95.2578 21.2349 95.3129 21.0205 95.4232C20.8122 95.5273 20.6377 95.6957 20.4968 95.9285C20.3559 96.1612 20.2855 96.4675 20.2855 96.8472V99.3003H19.5505ZM33.1332 92.5475C33.2925 92.5475 33.4425 92.5659 33.5834 92.6026C33.7243 92.6394 33.8345 92.6914 33.9141 92.7588L33.7212 93.356C33.6477 93.307 33.5681 93.2733 33.4823 93.2549C33.3966 93.2304 33.3016 93.2182 33.1975 93.2182C32.9341 93.2182 32.729 93.2825 32.582 93.4111C32.435 93.5336 32.3615 93.7327 32.3615 94.0083V94.7065V94.9454V99.3003H31.6265V93.9348C31.6265 93.7327 31.6571 93.5459 31.7183 93.3744C31.7796 93.2029 31.8715 93.0559 31.994 92.9334C32.1226 92.8109 32.2818 92.7159 32.4717 92.6485C32.6616 92.5812 32.8821 92.5475 33.1332 92.5475ZM33.8958 94.7065V95.3405H30.7077V94.7065H33.8958ZM36.6695 99.3922C36.2347 99.3922 35.8457 99.2972 35.5027 99.1074C35.1658 98.9175 34.9025 98.6449 34.7126 98.2897C34.5227 97.9283 34.4278 97.4995 34.4278 97.0034C34.4278 96.5073 34.5227 96.0816 34.7126 95.7264C34.9025 95.365 35.1628 95.0894 35.4935 94.8995C35.8243 94.7096 36.201 94.6147 36.6236 94.6147C37.0523 94.6147 37.4168 94.7065 37.7169 94.8903C38.0232 95.074 38.2559 95.3252 38.4152 95.6437C38.5744 95.956 38.654 96.3082 38.654 96.7002C38.654 96.8044 38.651 96.8993 38.6448 96.985C38.6387 97.0708 38.6295 97.1474 38.6173 97.2147H34.9055V96.5624H38.2957L37.919 96.6359C37.919 96.1949 37.7965 95.855 37.5515 95.6161C37.3127 95.3772 36.9972 95.2578 36.6052 95.2578C36.3051 95.2578 36.0448 95.3282 35.8243 95.4691C35.6099 95.6039 35.4415 95.8029 35.319 96.0663C35.2026 96.3235 35.1444 96.6359 35.1444 97.0034C35.1444 97.3648 35.2057 97.6772 35.3282 97.9405C35.4507 98.2039 35.6222 98.406 35.8427 98.5469C36.0693 98.6817 36.3388 98.749 36.6512 98.749C36.988 98.749 37.2606 98.6847 37.4688 98.5561C37.6832 98.4275 37.8547 98.2529 37.9833 98.0324L38.5622 98.3724C38.4458 98.5806 38.2957 98.7613 38.112 98.9144C37.9343 99.0675 37.723 99.187 37.478 99.2727C37.2392 99.3524 36.9697 99.3922 36.6695 99.3922ZM41.9721 99.3922C41.5372 99.3922 41.1483 99.2972 40.8053 99.1074C40.4684 98.9175 40.205 98.6449 40.0151 98.2897C39.8253 97.9283 39.7303 97.4995 39.7303 97.0034C39.7303 96.5073 39.8253 96.0816 40.0151 95.7264C40.205 95.365 40.4653 95.0894 40.7961 94.8995C41.1268 94.7096 41.5035 94.6147 41.9261 94.6147C42.3549 94.6147 42.7193 94.7065 43.0195 94.8903C43.3257 95.074 43.5585 95.3252 43.7177 95.6437C43.877 95.956 43.9566 96.3082 43.9566 96.7002C43.9566 96.8044 43.9535 96.8993 43.9474 96.985C43.9413 97.0708 43.9321 97.1474 43.9198 97.2147H40.2081V96.5624H43.5983L43.2216 96.6359C43.2216 96.1949 43.0991 95.855 42.8541 95.6161C42.6152 95.3772 42.2998 95.2578 41.9078 95.2578C41.6076 95.2578 41.3473 95.3282 41.1268 95.4691C40.9125 95.6039 40.744 95.8029 40.6215 96.0663C40.5051 96.3235 40.447 96.6359 40.447 97.0034C40.447 97.3648 40.5082 97.6772 40.6307 97.9405C40.7532 98.2039 40.9247 98.406 41.1452 98.5469C41.3718 98.6817 41.6413 98.749 41.9537 98.749C42.2906 98.749 42.5631 98.6847 42.7714 98.5561C42.9858 98.4275 43.1573 98.2529 43.2859 98.0324L43.8647 98.3724C43.7483 98.5806 43.5983 98.7613 43.4145 98.9144C43.2369 99.0675 43.0256 99.187 42.7806 99.2727C42.5417 99.3524 42.2722 99.3922 41.9721 99.3922ZM46.0527 92.5934V98.1335C46.0527 98.3662 46.0956 98.5285 46.1813 98.6204C46.2671 98.7062 46.4049 98.749 46.5948 98.749C46.7173 98.749 46.8183 98.7399 46.8979 98.7215C46.9776 98.7031 47.0848 98.6694 47.2195 98.6204L47.1001 99.2635C47.0021 99.3064 46.8949 99.337 46.7785 99.3554C46.6621 99.3799 46.5427 99.3922 46.4202 99.3922C46.0466 99.3922 45.7679 99.2911 45.5841 99.089C45.4065 98.8869 45.3177 98.5775 45.3177 98.161V92.5934H46.0527ZM48.5302 93.8245C48.3649 93.8245 48.2301 93.7755 48.126 93.6775C48.028 93.5734 47.979 93.4387 47.979 93.2733C47.979 93.1079 48.028 92.9762 48.126 92.8782C48.2301 92.7741 48.3649 92.722 48.5302 92.722C48.6956 92.722 48.8273 92.7741 48.9253 92.8782C49.0294 92.9762 49.0815 93.1079 49.0815 93.2733C49.0815 93.4387 49.0294 93.5734 48.9253 93.6775C48.8273 93.7755 48.6956 93.8245 48.5302 93.8245ZM48.8977 94.7065V99.3003H48.1627V94.7065H48.8977ZM50.6032 99.3003V94.7065H51.2463L51.3106 95.7355L51.1912 95.6345C51.2892 95.3895 51.4208 95.1935 51.5862 95.0465C51.7516 94.8934 51.9415 94.7831 52.1558 94.7157C52.3763 94.6484 52.603 94.6147 52.8357 94.6147C53.1665 94.6147 53.4666 94.679 53.7361 94.8076C54.0056 94.9301 54.22 95.12 54.3792 95.3772C54.5446 95.6345 54.6273 95.9622 54.6273 96.3603V99.3003H53.8923V96.6175C53.8923 96.1092 53.782 95.757 53.5615 95.561C53.3472 95.3589 53.0807 95.2578 52.7622 95.2578C52.5417 95.2578 52.3212 95.3099 52.1007 95.414C51.8802 95.5181 51.6965 95.6865 51.5495 95.9193C51.4086 96.152 51.3382 96.4644 51.3382 96.8564V99.3003H50.6032ZM60.1595 93.8613L60.3248 94.5136C60.3187 94.5136 60.3095 94.5136 60.2973 94.5136C60.285 94.5136 60.2728 94.5136 60.2605 94.5136C59.9604 94.5136 59.7276 94.5749 59.5623 94.6974C59.403 94.8137 59.3234 95.0036 59.3234 95.267L58.8732 95.0373C58.8732 94.7984 58.9283 94.5902 59.0386 94.4125C59.1488 94.2349 59.2989 94.1002 59.4888 94.0083C59.6786 93.9103 59.8869 93.8613 60.1135 93.8613C60.1196 93.8613 60.1258 93.8613 60.1319 93.8613C60.1441 93.8613 60.1533 93.8613 60.1595 93.8613ZM58.763 98.7123C59.1978 98.7123 59.5378 98.8134 59.7828 99.0155C60.0278 99.2115 60.1503 99.4749 60.1503 99.8056C60.1503 100.106 60.0492 100.366 59.8471 100.587C59.6511 100.807 59.3846 100.975 59.0478 101.092C58.717 101.214 58.3434 101.276 57.9269 101.276C57.2041 101.276 56.6621 101.153 56.3007 100.908C55.9455 100.663 55.7678 100.369 55.7678 100.026C55.7678 99.7811 55.8475 99.5606 56.0067 99.3646C56.1721 99.1747 56.4477 99.0675 56.8336 99.043L56.7693 99.1809C56.561 99.1257 56.3834 99.0339 56.2364 98.9052C56.0955 98.7705 56.0251 98.5775 56.0251 98.3264C56.0251 98.0753 56.117 97.8609 56.3007 97.6833C56.4906 97.4995 56.7693 97.3862 57.1368 97.3434L57.6237 97.5914H57.5318C57.2317 97.622 57.0173 97.6986 56.8887 97.8211C56.7662 97.9375 56.705 98.0661 56.705 98.207C56.705 98.3785 56.7662 98.5071 56.8887 98.5929C57.0173 98.6725 57.195 98.7123 57.4216 98.7123H58.763ZM57.9177 100.66C58.273 100.66 58.5639 100.623 58.7905 100.55C59.0233 100.476 59.1948 100.381 59.305 100.265C59.4153 100.149 59.4704 100.023 59.4704 99.8883C59.4704 99.7229 59.403 99.5912 59.2683 99.4932C59.1396 99.3952 58.9038 99.3462 58.5608 99.3462H57.146C56.95 99.3462 56.7846 99.3952 56.6498 99.4932C56.5151 99.5974 56.4477 99.7382 56.4477 99.9159C56.4477 100.142 56.5763 100.323 56.8336 100.458C57.097 100.593 57.4583 100.66 57.9177 100.66ZM57.8534 94.6147C58.2209 94.6147 58.5455 94.682 58.8273 94.8168C59.1151 94.9454 59.3387 95.1261 59.498 95.3589C59.6572 95.5916 59.7368 95.8611 59.7368 96.1674C59.7368 96.4675 59.6572 96.737 59.498 96.9759C59.3387 97.2086 59.1151 97.3924 58.8273 97.5271C58.5455 97.6557 58.2209 97.72 57.8534 97.72C57.247 97.72 56.7815 97.5761 56.4569 97.2882C56.1323 96.9942 55.97 96.6206 55.97 96.1674C55.97 95.8611 56.0496 95.5916 56.2088 95.3589C56.3742 95.1261 56.5978 94.9454 56.8795 94.8168C57.1613 94.682 57.4859 94.6147 57.8534 94.6147ZM57.8534 95.2119C57.5349 95.2119 57.2685 95.3007 57.0541 95.4783C56.8397 95.6498 56.7325 95.8795 56.7325 96.1674C56.7325 96.4491 56.8397 96.6788 57.0541 96.8564C57.2685 97.034 57.5349 97.1229 57.8534 97.1229C58.1719 97.1229 58.4383 97.034 58.6527 96.8564C58.8671 96.6788 58.9743 96.4491 58.9743 96.1674C58.9743 95.8795 58.8671 95.6498 58.6527 95.4783C58.4383 95.3007 58.1719 95.2119 57.8534 95.2119ZM68.1806 93.8613L68.3459 94.5136C68.3398 94.5136 68.3306 94.5136 68.3184 94.5136C68.3061 94.5136 68.2939 94.5136 68.2816 94.5136C67.9815 94.5136 67.7488 94.5749 67.5834 94.6974C67.4241 94.8137 67.3445 95.0036 67.3445 95.267L66.8943 95.0373C66.8943 94.7984 66.9494 94.5902 67.0597 94.4125C67.1699 94.2349 67.32 94.1002 67.5099 94.0083C67.6998 93.9103 67.908 93.8613 68.1346 93.8613C68.1408 93.8613 68.1469 93.8613 68.153 93.8613C68.1653 93.8613 68.1744 93.8613 68.1806 93.8613ZM66.7841 98.7123C67.2189 98.7123 67.5589 98.8134 67.8039 99.0155C68.0489 99.2115 68.1714 99.4749 68.1714 99.8056C68.1714 100.106 68.0703 100.366 67.8682 100.587C67.6722 100.807 67.4058 100.975 67.0689 101.092C66.7381 101.214 66.3645 101.276 65.948 101.276C65.2253 101.276 64.6832 101.153 64.3218 100.908C63.9666 100.663 63.7889 100.369 63.7889 100.026C63.7889 99.7811 63.8686 99.5606 64.0278 99.3646C64.1932 99.1747 64.4688 99.0675 64.8547 99.043L64.7904 99.1809C64.5821 99.1257 64.4045 99.0339 64.2575 98.9052C64.1166 98.7705 64.0462 98.5775 64.0462 98.3264C64.0462 98.0753 64.1381 97.8609 64.3218 97.6833C64.5117 97.4995 64.7904 97.3862 65.1579 97.3434L65.6448 97.5914H65.5529C65.2528 97.622 65.0384 97.6986 64.9098 97.8211C64.7873 97.9375 64.7261 98.0661 64.7261 98.207C64.7261 98.3785 64.7873 98.5071 64.9098 98.5929C65.0384 98.6725 65.2161 98.7123 65.4427 98.7123H66.7841ZM65.9388 100.66C66.2941 100.66 66.585 100.623 66.8116 100.55C67.0444 100.476 67.2159 100.381 67.3261 100.265C67.4364 100.149 67.4915 100.023 67.4915 99.8883C67.4915 99.7229 67.4241 99.5912 67.2894 99.4932C67.1608 99.3952 66.9249 99.3462 66.5819 99.3462H65.1671C64.9711 99.3462 64.8057 99.3952 64.6709 99.4932C64.5362 99.5974 64.4688 99.7382 64.4688 99.9159C64.4688 100.142 64.5974 100.323 64.8547 100.458C65.1181 100.593 65.4794 100.66 65.9388 100.66ZM65.8745 94.6147C66.242 94.6147 66.5666 94.682 66.8484 94.8168C67.1363 94.9454 67.3598 95.1261 67.5191 95.3589C67.6783 95.5916 67.7579 95.8611 67.7579 96.1674C67.7579 96.4675 67.6783 96.737 67.5191 96.9759C67.3598 97.2086 67.1363 97.3924 66.8484 97.5271C66.5666 97.6557 66.242 97.72 65.8745 97.72C65.2681 97.72 64.8026 97.5761 64.478 97.2882C64.1534 96.9942 63.9911 96.6206 63.9911 96.1674C63.9911 95.8611 64.0707 95.5916 64.2299 95.3589C64.3953 95.1261 64.6189 94.9454 64.9006 94.8168C65.1824 94.682 65.507 94.6147 65.8745 94.6147ZM65.8745 95.2119C65.556 95.2119 65.2896 95.3007 65.0752 95.4783C64.8608 95.6498 64.7536 95.8795 64.7536 96.1674C64.7536 96.4491 64.8608 96.6788 65.0752 96.8564C65.2896 97.034 65.556 97.1229 65.8745 97.1229C66.193 97.1229 66.4594 97.034 66.6738 96.8564C66.8882 96.6788 66.9954 96.4491 66.9954 96.1674C66.9954 95.8795 66.8882 95.6498 66.6738 95.4783C66.4594 95.3007 66.193 95.2119 65.8745 95.2119ZM69.2025 99.3003V94.7065H69.7997L69.9007 95.4599C70.0293 95.1782 70.2162 94.9669 70.4612 94.826C70.7123 94.6851 71.0155 94.6147 71.3707 94.6147C71.4503 94.6147 71.5361 94.6208 71.628 94.633C71.726 94.6453 71.8087 94.6698 71.876 94.7065L71.7474 95.3772C71.68 95.3527 71.6065 95.3344 71.5269 95.3221C71.4473 95.3099 71.334 95.3037 71.187 95.3037C70.9971 95.3037 70.8042 95.3589 70.6082 95.4691C70.4183 95.5794 70.259 95.7478 70.1304 95.9744C70.0018 96.1949 69.9375 96.4767 69.9375 96.8197V99.3003H69.2025ZM75.51 96.3327C75.51 95.9897 75.4181 95.7264 75.2343 95.5426C75.0506 95.3527 74.7903 95.2578 74.4534 95.2578C74.1349 95.2578 73.8654 95.3282 73.6449 95.4691C73.4244 95.6039 73.2621 95.8244 73.158 96.1306L72.5608 95.7631C72.6833 95.4201 72.9099 95.1445 73.2407 94.9362C73.5714 94.7219 73.9818 94.6147 74.4718 94.6147C74.8025 94.6147 75.1027 94.6729 75.3722 94.7892C75.6417 94.8995 75.853 95.071 76.0061 95.3037C76.1653 95.5304 76.245 95.8244 76.245 96.1857V98.4091C76.245 98.6296 76.3613 98.7399 76.5941 98.7399C76.7105 98.7399 76.8238 98.7245 76.934 98.6939L76.8973 99.2727C76.7748 99.334 76.6155 99.3646 76.4195 99.3646C76.2419 99.3646 76.0827 99.3309 75.9418 99.2635C75.8009 99.1962 75.6907 99.0951 75.611 98.9604C75.5314 98.8195 75.4916 98.6449 75.4916 98.4367V98.3448L75.6753 98.3724C75.6018 98.6112 75.4763 98.8072 75.2987 98.9604C75.121 99.1074 74.922 99.2176 74.7015 99.2911C74.481 99.3585 74.2635 99.3922 74.0492 99.3922C73.7797 99.3922 73.5285 99.3462 73.2958 99.2544C73.063 99.1625 72.8762 99.0247 72.7353 98.8409C72.6006 98.651 72.5332 98.4183 72.5332 98.1427C72.5332 97.7997 72.6465 97.5179 72.8732 97.2974C73.1059 97.0708 73.4275 96.9177 73.8378 96.838L75.657 96.4797V97.0861L74.1778 97.3893C73.8777 97.4505 73.6541 97.5363 73.5071 97.6465C73.3601 97.7568 73.2866 97.9099 73.2866 98.1059C73.2866 98.2958 73.3601 98.452 73.5071 98.5745C73.6602 98.6909 73.8746 98.749 74.1502 98.749C74.3278 98.749 74.4963 98.7276 74.6555 98.6847C74.8209 98.6357 74.9679 98.5653 75.0965 98.4734C75.2252 98.3754 75.3262 98.256 75.3997 98.1151C75.4732 97.9681 75.51 97.7966 75.51 97.6006V96.3327ZM78.9358 93.4019V98.0324C78.9358 98.259 79.0001 98.4275 79.1287 98.5377C79.2573 98.648 79.4227 98.7031 79.6248 98.7031C79.8024 98.7031 79.9556 98.6725 80.0842 98.6112C80.2128 98.55 80.3292 98.4673 80.4333 98.3632L80.6906 98.9787C80.5497 99.1074 80.3813 99.2084 80.1853 99.2819C79.9954 99.3554 79.7749 99.3922 79.5238 99.3922C79.291 99.3922 79.0736 99.3524 78.8714 99.2727C78.6693 99.187 78.507 99.0553 78.3845 98.8777C78.2681 98.6939 78.2069 98.455 78.2008 98.161V93.604L78.9358 93.4019ZM80.6079 94.7065V95.3405H77.282V94.7065H80.6079ZM83.6209 99.3922C83.186 99.3922 82.7971 99.2972 82.4541 99.1074C82.1172 98.9175 81.8538 98.6449 81.6639 98.2897C81.4741 97.9283 81.3791 97.4995 81.3791 97.0034C81.3791 96.5073 81.4741 96.0816 81.6639 95.7264C81.8538 95.365 82.1141 95.0894 82.4449 94.8995C82.7756 94.7096 83.1523 94.6147 83.5749 94.6147C84.0037 94.6147 84.3681 94.7065 84.6683 94.8903C84.9745 95.074 85.2073 95.3252 85.3665 95.6437C85.5258 95.956 85.6054 96.3082 85.6054 96.7002C85.6054 96.8044 85.6023 96.8993 85.5962 96.985C85.5901 97.0708 85.5809 97.1474 85.5686 97.2147H81.8569V96.5624H85.2471L84.8704 96.6359C84.8704 96.1949 84.7479 95.855 84.5029 95.6161C84.264 95.3772 83.9486 95.2578 83.5566 95.2578C83.2564 95.2578 82.9961 95.3282 82.7756 95.4691C82.5613 95.6039 82.3928 95.8029 82.2703 96.0663C82.1539 96.3235 82.0958 96.6359 82.0958 97.0034C82.0958 97.3648 82.157 97.6772 82.2795 97.9405C82.402 98.2039 82.5735 98.406 82.794 98.5469C83.0206 98.6817 83.2901 98.749 83.6025 98.749C83.9394 98.749 84.2119 98.6847 84.4202 98.5561C84.6346 98.4275 84.8061 98.2529 84.9347 98.0324L85.5135 98.3724C85.3971 98.5806 85.2471 98.7613 85.0633 98.9144C84.8857 99.0675 84.6744 99.187 84.4294 99.2727C84.1905 99.3524 83.921 99.3922 83.6209 99.3922ZM88.8234 92.5475C88.9827 92.5475 89.1328 92.5659 89.2736 92.6026C89.4145 92.6394 89.5248 92.6914 89.6044 92.7588L89.4114 93.356C89.3379 93.307 89.2583 93.2733 89.1726 93.2549C89.0868 93.2304 88.9919 93.2182 88.8878 93.2182C88.6244 93.2182 88.4192 93.2825 88.2722 93.4111C88.1252 93.5336 88.0517 93.7327 88.0517 94.0083V94.7065V94.9454V99.3003H87.3167V93.9348C87.3167 93.7327 87.3473 93.5459 87.4086 93.3744C87.4698 93.2029 87.5617 93.0559 87.6842 92.9334C87.8128 92.8109 87.9721 92.7159 88.1619 92.6485C88.3518 92.5812 88.5723 92.5475 88.8234 92.5475ZM89.586 94.7065V95.3405H86.3979V94.7065H89.586ZM92.2281 99.3922C91.9341 99.3922 91.6554 99.337 91.3921 99.2268C91.1348 99.1165 90.9235 98.9389 90.7581 98.6939C90.5989 98.4428 90.5193 98.1182 90.5193 97.72V94.7065H91.2543V97.5271C91.2543 97.9926 91.3553 98.3142 91.5574 98.4918C91.7596 98.6633 92.0444 98.749 92.4119 98.749C92.5834 98.749 92.7518 98.7215 92.9172 98.6664C93.0826 98.6051 93.2296 98.5132 93.3582 98.3907C93.4929 98.2621 93.5971 98.0998 93.6706 97.9038C93.7502 97.7078 93.79 97.475 93.79 97.2055V94.7065H94.525V99.3003H93.8819L93.8359 98.602C93.6767 98.8777 93.4593 99.0798 93.1836 99.2084C92.9141 99.3309 92.5956 99.3922 92.2281 99.3922ZM96.9339 92.5934V98.1335C96.9339 98.3662 96.9767 98.5285 97.0625 98.6204C97.1482 98.7062 97.286 98.749 97.4759 98.749C97.5984 98.749 97.6995 98.7399 97.7791 98.7215C97.8587 98.7031 97.9659 98.6694 98.1007 98.6204L97.9812 99.2635C97.8832 99.3064 97.776 99.337 97.6597 99.3554C97.5433 99.3799 97.4239 99.3922 97.3014 99.3922C96.9277 99.3922 96.649 99.2911 96.4653 99.089C96.2877 98.8869 96.1989 98.5775 96.1989 98.161V92.5934H96.9339Z" fill="black" fill-opacity="0.8"/>
<rect width="168" height="189" transform="matrix(-1 0 0 1 336.59 0)" fill="url(#paint1_linear_986_168927)"/>
<rect width="168" height="189" transform="matrix(-1 0 0 1 336.59 0)" fill="url(#paint2_linear_986_168927)" fill-opacity="0.8"/>
<rect width="168" height="189" transform="matrix(-1 0 0 1 336.59 0)" fill="url(#paint3_radial_986_168927)" fill-opacity="0.4"/>
<rect width="168" height="189" transform="matrix(-1 0 0 1 336.59 0)" fill="url(#paint4_radial_986_168927)" fill-opacity="0.6"/>
<rect width="168" height="189" transform="matrix(-1 0 0 1 336.59 0)" fill="black" fill-opacity="0.7"/>
<rect width="168" height="189" transform="matrix(-1 0 0 1 336.59 0)" fill="black" fill-opacity="0.25"/>
<path fill-rule="evenodd" clip-rule="evenodd" d="M233.023 49.086C234.299 49.8382 235.807 50.2143 237.545 50.2143C239.08 50.2143 240.365 49.9024 241.401 49.2786C242.162 48.8202 242.773 48.2231 243.235 47.4873L243.315 49.9391H245.063V40.7746H237.212V42.8387H243.038V43.4717C243.038 44.2606 242.899 44.9486 242.621 45.5358C242.344 46.1229 241.956 46.6091 241.456 46.9944C240.976 47.3797 240.402 47.6732 239.736 47.8751C239.089 48.0585 238.386 48.1503 237.628 48.1503C236.278 48.1503 235.132 47.8659 234.189 47.2971C233.264 46.71 232.561 45.8752 232.08 44.7927C231.618 43.6918 231.387 42.38 231.387 40.8572C231.387 39.3343 231.655 38.0317 232.191 36.9492C232.746 35.8483 233.495 35.0135 234.438 34.4448C235.4 33.8576 236.5 33.5641 237.739 33.5641C239.015 33.5641 240.088 33.8393 240.957 34.3897C241.845 34.9218 242.492 35.7107 242.899 36.7565L244.924 35.6557C244.221 34.2429 243.296 33.1971 242.15 32.5183C241.022 31.8394 239.552 31.5 237.739 31.5C236.038 31.5 234.531 31.8853 233.218 32.6559C231.905 33.4081 230.878 34.4815 230.139 35.8759C229.417 37.2703 229.057 38.9307 229.057 40.8572C229.057 42.7837 229.399 44.4441 230.083 45.8385C230.786 47.2329 231.766 48.3154 233.023 49.086ZM206.881 31.7752V49.9391H204.135L196.479 37.7748L194.537 34.3622H194.509L194.62 37.1143V49.9391H192.512V31.7752H195.258L202.886 43.8845L204.856 47.3797H204.884L204.773 44.6V31.7752H206.881ZM212.883 49.9391V31.7752H225.727V33.8393H215.102V39.7013H223.369V41.7654H215.102V47.8751H226.143V49.9391H212.883ZM247.965 49.9391L255.094 31.7752H257.729L264.831 49.9391H262.473L260.533 44.9028H252.233L250.295 49.9391H247.965ZM257.258 36.3988L259.738 42.8387H253.028L255.538 36.3162L256.342 33.8668H256.398L257.258 36.3988ZM278.931 33.8393V31.7752H263.952V33.8393H270.332V49.9391H272.551V33.8393H278.931ZM285.021 31.7752V49.9391H282.801V31.7752H285.021ZM308.997 31.7752V49.9391H322.257V47.8751H311.216V41.7654H319.483V39.7013H311.216V33.8393H321.841V31.7752H308.997ZM302.768 31.7755V49.9394H300.021L292.365 37.7751L290.423 34.3625L288.793 31.7755H291.145L298.773 43.8848L300.743 47.3799H300.77L300.659 44.6003V31.7755H302.768Z" fill="white" fill-opacity="0.8"/>
<path d="M244.351 51.1191C245.96 51.1191 247.348 51.4494 248.513 52.11C249.678 52.7522 250.649 53.7063 251.426 54.9724L249.567 56.4036C248.883 55.2292 248.106 54.4036 247.237 53.9265C246.386 53.4311 245.35 53.1834 244.13 53.1834C243.149 53.1834 242.336 53.321 241.688 53.5962C241.059 53.8714 240.597 54.2384 240.301 54.6971C240.005 55.1375 239.857 55.6421 239.857 56.2109C239.857 56.8531 240.061 57.4219 240.468 57.9173C240.874 58.3944 241.688 58.7705 242.909 59.0458L246.876 59.9265C248.633 60.3118 249.854 60.899 250.538 61.688C251.241 62.4586 251.592 63.4219 251.592 64.5779C251.592 65.6054 251.296 66.5229 250.704 67.3302C250.131 68.1192 249.317 68.7339 248.263 69.1742C247.209 69.6146 245.97 69.8348 244.546 69.8348C243.214 69.8348 242.04 69.6605 241.022 69.3119C240.024 68.9449 239.164 68.4587 238.442 67.8531C237.721 67.2476 237.129 66.5687 236.667 65.8164L238.609 64.2476C238.96 64.9449 239.413 65.5596 239.968 66.0917C240.523 66.6238 241.189 67.0366 241.966 67.3302C242.761 67.6238 243.667 67.7706 244.684 67.7706C245.628 67.7706 246.441 67.6605 247.126 67.4403C247.828 67.2018 248.365 66.8623 248.735 66.4219C249.105 65.9632 249.289 65.4128 249.289 64.7706C249.289 64.1834 249.095 63.6605 248.707 63.2018C248.319 62.7247 247.588 62.3669 246.515 62.1284L242.215 61.165C241.087 60.9082 240.172 60.5595 239.469 60.1192C238.785 59.6605 238.285 59.1283 237.971 58.5228C237.675 57.899 237.527 57.2293 237.527 56.5137C237.527 55.5412 237.795 54.6513 238.331 53.8439C238.886 53.0182 239.672 52.3577 240.69 51.8623C241.725 51.3668 242.946 51.1191 244.351 51.1191Z" fill="white" fill-opacity="0.35"/>
<path d="M262.706 51.3944C263.945 51.3944 265.018 51.6237 265.924 52.0824C266.849 52.5228 267.57 53.1558 268.088 53.9815C268.606 54.8072 268.865 55.7889 268.865 56.9265C268.865 58.0641 268.606 59.0458 268.088 59.8715C267.57 60.6972 266.849 61.3394 265.924 61.7981C265.018 62.2384 263.945 62.4586 262.706 62.4586H258.462V69.5596H256.242V51.3944H262.706ZM262.373 60.3944C263.816 60.3944 264.87 60.1008 265.536 59.5137C266.202 58.9082 266.534 58.0458 266.534 56.9265C266.534 55.7889 266.202 54.9265 265.536 54.3393C264.87 53.7522 263.816 53.4586 262.373 53.4586H258.462V60.3944H262.373Z" fill="white" fill-opacity="0.35"/>
<path d="M269.572 69.5596L276.702 51.3944H279.337L286.439 69.5596H284.081L278.866 56.0182L278.006 53.4861H277.95L277.146 55.9357L271.902 69.5596H269.572ZM273.068 64.5229V62.4586H282.86V64.5229H273.068Z" fill="white" fill-opacity="0.35"/>
<path d="M304.296 64.9082C303.908 65.9357 303.353 66.8256 302.632 67.5779C301.911 68.3119 301.06 68.8715 300.08 69.2568C299.118 69.6421 298.064 69.8348 296.917 69.8348C295.179 69.8348 293.671 69.4587 292.395 68.7064C291.137 67.9357 290.157 66.8531 289.454 65.4586C288.77 64.0641 288.428 62.4036 288.428 60.477C288.428 58.5504 288.77 56.8898 289.454 55.4953C290.157 54.1008 291.137 53.0274 292.395 52.2751C293.671 51.5045 295.16 51.1191 296.862 51.1191C298.045 51.1191 299.099 51.2843 300.024 51.6146C300.949 51.9265 301.735 52.4035 302.382 53.0458C303.048 53.6696 303.575 54.4403 303.963 55.3577L301.772 56.376C301.365 55.3302 300.773 54.5412 299.996 54.0091C299.238 53.4586 298.249 53.1834 297.028 53.1834C295.789 53.1834 294.698 53.4769 293.754 54.0641C292.811 54.6329 292.071 55.4586 291.535 56.5412C291.017 57.6237 290.758 58.9357 290.758 60.477C290.758 61.9999 291.008 63.3118 291.507 64.4128C292.007 65.4953 292.719 66.3302 293.643 66.9174C294.568 67.4862 295.659 67.7706 296.917 67.7706C298.138 67.7706 299.201 67.4678 300.107 66.8623C301.014 66.2385 301.67 65.3119 302.077 64.0825L304.296 64.9082Z" fill="white" fill-opacity="0.35"/>
<path d="M308.556 69.5596V51.3944H321.4V53.4586H310.775V59.321H319.042V61.3852H310.775V67.4953H321.816V69.5596H308.556Z" fill="white" fill-opacity="0.35"/>
<path d="M244.31 93.2537V99.3H243.577V93.2537H244.31ZM246.498 92.8873C246.645 92.8873 246.767 92.927 246.865 93.0064C246.968 93.0797 247.048 93.1835 247.103 93.3179C247.158 93.4461 247.185 93.5988 247.185 93.7759C247.185 93.9775 247.149 94.176 247.075 94.3714C247.008 94.5668 246.901 94.747 246.755 94.9119C246.608 95.0768 246.419 95.2142 246.187 95.3241L245.802 94.9669C245.967 94.9119 246.11 94.8356 246.233 94.7378C246.361 94.6401 246.465 94.5302 246.544 94.408C246.623 94.2859 246.675 94.1607 246.7 94.0324L246.663 94.0141C246.639 94.0324 246.608 94.0477 246.571 94.0599C246.535 94.0721 246.48 94.0782 246.407 94.0782C246.333 94.0782 246.257 94.0569 246.178 94.0141C246.104 93.9714 246.04 93.9103 245.985 93.8309C245.93 93.7454 245.903 93.6355 245.903 93.5011C245.903 93.3912 245.93 93.2904 245.985 93.1988C246.04 93.1011 246.11 93.0247 246.196 92.9698C246.287 92.9148 246.388 92.8873 246.498 92.8873ZM248.396 99.3V94.7195H249.037L249.083 95.4341C249.248 95.1531 249.461 94.9485 249.724 94.8203C249.993 94.692 250.268 94.6279 250.548 94.6279C250.872 94.6279 251.178 94.7012 251.465 94.8478C251.752 94.9943 251.971 95.2203 252.124 95.5257C252.222 95.318 252.359 95.1501 252.536 95.0218C252.714 94.8875 252.906 94.7897 253.114 94.7287C253.327 94.6615 253.529 94.6279 253.718 94.6279C254.011 94.6279 254.289 94.689 254.552 94.8111C254.821 94.9333 255.04 95.1226 255.211 95.3791C255.382 95.6356 255.468 95.9654 255.468 96.3685V99.3H254.735V96.4418C254.735 96.0265 254.631 95.7272 254.424 95.544C254.216 95.3608 253.959 95.2692 253.654 95.2692C253.416 95.2692 253.193 95.3272 252.985 95.4432C252.778 95.5593 252.61 95.7303 252.481 95.9563C252.359 96.1822 252.298 96.4601 252.298 96.7899V99.3H251.565V96.4418C251.565 96.0265 251.462 95.7272 251.254 95.544C251.046 95.3608 250.79 95.2692 250.484 95.2692C250.283 95.2692 250.075 95.3241 249.861 95.4341C249.654 95.5379 249.48 95.7059 249.339 95.9379C249.199 96.17 249.128 96.4754 249.128 96.854V99.3H248.396ZM261.939 92.5667C262.098 92.5667 262.248 92.585 262.388 92.6216C262.529 92.6583 262.639 92.7102 262.718 92.7774L262.526 93.3728C262.452 93.324 262.373 93.2904 262.287 93.2721C262.202 93.2476 262.107 93.2354 262.003 93.2354C261.741 93.2354 261.536 93.2995 261.39 93.4278C261.243 93.55 261.17 93.7484 261.17 94.0233V94.7195V94.9577V99.3H260.437V93.95C260.437 93.7484 260.467 93.5622 260.528 93.3912C260.59 93.2202 260.681 93.0736 260.803 92.9514C260.932 92.8293 261.09 92.7346 261.28 92.6674C261.469 92.6003 261.689 92.5667 261.939 92.5667ZM262.7 94.7195V95.3516H259.521V94.7195H262.7ZM265.465 99.3917C265.032 99.3917 264.644 99.297 264.302 99.1077C263.966 98.9183 263.703 98.6466 263.514 98.2923C263.325 97.932 263.23 97.5045 263.23 97.0098C263.23 96.5151 263.325 96.0906 263.514 95.7364C263.703 95.3761 263.963 95.1012 264.293 94.9119C264.623 94.7226 264.998 94.6279 265.42 94.6279C265.847 94.6279 266.21 94.7195 266.51 94.9027C266.815 95.086 267.047 95.3364 267.206 95.6539C267.365 95.9654 267.444 96.3166 267.444 96.7075C267.444 96.8113 267.441 96.906 267.435 96.9915C267.429 97.077 267.42 97.1533 267.408 97.2205H263.706V96.5701H267.087L266.711 96.6433C266.711 96.2036 266.589 95.8646 266.345 95.6265C266.107 95.3883 265.792 95.2692 265.401 95.2692C265.102 95.2692 264.842 95.3394 264.623 95.4799C264.409 95.6142 264.241 95.8127 264.119 96.0754C264.003 96.3319 263.945 96.6433 263.945 97.0098C263.945 97.3701 264.006 97.6816 264.128 97.9442C264.25 98.2068 264.421 98.4084 264.641 98.5488C264.867 98.6832 265.136 98.7504 265.447 98.7504C265.783 98.7504 266.055 98.6863 266.262 98.558C266.476 98.4297 266.647 98.2557 266.775 98.0358L267.353 98.3748C267.237 98.5824 267.087 98.7626 266.904 98.9153C266.727 99.068 266.516 99.1871 266.272 99.2726C266.033 99.352 265.765 99.3917 265.465 99.3917ZM270.753 99.3917C270.319 99.3917 269.931 99.297 269.589 99.1077C269.253 98.9183 268.991 98.6466 268.801 98.2923C268.612 97.932 268.517 97.5045 268.517 97.0098C268.517 96.5151 268.612 96.0906 268.801 95.7364C268.991 95.3761 269.25 95.1012 269.58 94.9119C269.91 94.7226 270.285 94.6279 270.707 94.6279C271.134 94.6279 271.498 94.7195 271.797 94.9027C272.102 95.086 272.335 95.3364 272.493 95.6539C272.652 95.9654 272.731 96.3166 272.731 96.7075C272.731 96.8113 272.728 96.906 272.722 96.9915C272.716 97.077 272.707 97.1533 272.695 97.2205H268.994V96.5701H272.374L271.999 96.6433C271.999 96.2036 271.876 95.8646 271.632 95.6265C271.394 95.3883 271.079 95.2692 270.689 95.2692C270.389 95.2692 270.13 95.3394 269.91 95.4799C269.696 95.6142 269.528 95.8127 269.406 96.0754C269.29 96.3319 269.232 96.6433 269.232 97.0098C269.232 97.3701 269.293 97.6816 269.415 97.9442C269.537 98.2068 269.708 98.4084 269.928 98.5488C270.154 98.6832 270.423 98.7504 270.734 98.7504C271.07 98.7504 271.342 98.6863 271.55 98.558C271.763 98.4297 271.934 98.2557 272.063 98.0358L272.64 98.3748C272.524 98.5824 272.374 98.7626 272.191 98.9153C272.014 99.068 271.803 99.1871 271.559 99.2726C271.321 99.352 271.052 99.3917 270.753 99.3917ZM274.822 92.6125V98.1366C274.822 98.3687 274.864 98.5305 274.95 98.6221C275.035 98.7076 275.173 98.7504 275.362 98.7504C275.484 98.7504 275.585 98.7412 275.664 98.7229C275.744 98.7046 275.851 98.671 275.985 98.6221L275.866 99.2634C275.768 99.3062 275.661 99.3367 275.545 99.355C275.429 99.3794 275.31 99.3917 275.188 99.3917C274.815 99.3917 274.538 99.2909 274.354 99.0893C274.177 98.8878 274.089 98.5794 274.089 98.1641V92.6125H274.822ZM277.292 93.8401C277.127 93.8401 276.993 93.7912 276.889 93.6935C276.791 93.5896 276.742 93.4553 276.742 93.2904C276.742 93.1255 276.791 92.9942 276.889 92.8965C276.993 92.7926 277.127 92.7407 277.292 92.7407C277.457 92.7407 277.588 92.7926 277.686 92.8965C277.79 92.9942 277.842 93.1255 277.842 93.2904C277.842 93.4553 277.79 93.5896 277.686 93.6935C277.588 93.7912 277.457 93.8401 277.292 93.8401ZM277.658 94.7195V99.3H276.926V94.7195H277.658ZM279.359 99.3V94.7195H280L280.064 95.7456L279.945 95.6448C280.043 95.4005 280.174 95.2051 280.339 95.0585C280.504 94.9058 280.693 94.7959 280.907 94.7287C281.127 94.6615 281.353 94.6279 281.585 94.6279C281.915 94.6279 282.214 94.692 282.483 94.8203C282.752 94.9424 282.965 95.1318 283.124 95.3883C283.289 95.6448 283.371 95.9715 283.371 96.3685V99.3H282.639V96.625C282.639 96.1181 282.529 95.7669 282.309 95.5715C282.095 95.37 281.829 95.2692 281.512 95.2692C281.292 95.2692 281.072 95.3211 280.852 95.4249C280.632 95.5287 280.449 95.6967 280.303 95.9288C280.162 96.1609 280.092 96.4723 280.092 96.8632V99.3H279.359ZM288.888 93.8767L289.053 94.5271C289.047 94.5271 289.037 94.5271 289.025 94.5271C289.013 94.5271 289.001 94.5271 288.989 94.5271C288.689 94.5271 288.457 94.5882 288.292 94.7104C288.133 94.8264 288.054 95.0157 288.054 95.2783L287.605 95.0493C287.605 94.8111 287.66 94.6035 287.77 94.4264C287.88 94.2492 288.03 94.1149 288.219 94.0233C288.408 93.9256 288.616 93.8767 288.842 93.8767C288.848 93.8767 288.854 93.8767 288.86 93.8767C288.872 93.8767 288.882 93.8767 288.888 93.8767ZM287.495 98.7137C287.929 98.7137 288.268 98.8145 288.512 99.0161C288.756 99.2115 288.879 99.4741 288.879 99.8039C288.879 100.103 288.778 100.363 288.576 100.583C288.381 100.802 288.115 100.97 287.779 101.086C287.449 101.209 287.077 101.27 286.662 101.27C285.941 101.27 285.4 101.148 285.04 100.903C284.686 100.659 284.509 100.366 284.509 100.024C284.509 99.7795 284.588 99.5596 284.747 99.3642C284.912 99.1748 285.187 99.068 285.571 99.0435L285.507 99.181C285.3 99.126 285.123 99.0344 284.976 98.9061C284.835 98.7718 284.765 98.5794 284.765 98.329C284.765 98.0786 284.857 97.8648 285.04 97.6877C285.229 97.5045 285.507 97.3915 285.874 97.3487L286.359 97.5961H286.268C285.968 97.6266 285.755 97.703 285.626 97.8251C285.504 97.9412 285.443 98.0694 285.443 98.2099C285.443 98.3809 285.504 98.5091 285.626 98.5946C285.755 98.674 285.932 98.7137 286.158 98.7137H287.495ZM286.652 100.656C287.007 100.656 287.297 100.619 287.523 100.546C287.755 100.473 287.926 100.378 288.036 100.262C288.146 100.146 288.201 100.021 288.201 99.8864C288.201 99.7215 288.133 99.5901 287.999 99.4924C287.871 99.3947 287.636 99.3459 287.294 99.3459H285.883C285.687 99.3459 285.523 99.3947 285.388 99.4924C285.254 99.5963 285.187 99.7367 285.187 99.9138C285.187 100.14 285.315 100.32 285.571 100.454C285.834 100.589 286.194 100.656 286.652 100.656ZM286.588 94.6279C286.955 94.6279 287.278 94.6951 287.559 94.8294C287.846 94.9577 288.069 95.1379 288.228 95.37C288.387 95.602 288.466 95.8708 288.466 96.1761C288.466 96.4754 288.387 96.7441 288.228 96.9823C288.069 97.2144 287.846 97.3976 287.559 97.532C287.278 97.6602 286.955 97.7243 286.588 97.7243C285.984 97.7243 285.52 97.5808 285.196 97.2938C284.872 97.0006 284.71 96.6281 284.71 96.1761C284.71 95.8708 284.79 95.602 284.948 95.37C285.113 95.1379 285.336 94.9577 285.617 94.8294C285.898 94.6951 286.222 94.6279 286.588 94.6279ZM286.588 95.2234C286.271 95.2234 286.005 95.3119 285.791 95.489C285.578 95.6601 285.471 95.8891 285.471 96.1761C285.471 96.4571 285.578 96.6861 285.791 96.8632C286.005 97.0403 286.271 97.1289 286.588 97.1289C286.906 97.1289 287.172 97.0403 287.385 96.8632C287.599 96.6861 287.706 96.4571 287.706 96.1761C287.706 95.8891 287.599 95.6601 287.385 95.489C287.172 95.3119 286.906 95.2234 286.588 95.2234ZM293.029 99.3V92.6125H293.762V95.4066C293.921 95.1318 294.131 94.9333 294.394 94.8111C294.657 94.689 294.944 94.6279 295.255 94.6279C295.585 94.6279 295.884 94.692 296.153 94.8203C296.422 94.9424 296.635 95.1318 296.794 95.3883C296.959 95.6448 297.042 95.9715 297.042 96.3685V99.3H296.309V96.625C296.309 96.1181 296.199 95.7669 295.979 95.5715C295.765 95.37 295.499 95.2692 295.182 95.2692C294.962 95.2692 294.742 95.3211 294.522 95.4249C294.302 95.5287 294.119 95.6997 293.973 95.9379C293.832 96.17 293.762 96.4815 293.762 96.8724V99.3H293.029ZM301.376 96.341C301.376 95.999 301.284 95.7364 301.101 95.5532C300.918 95.3638 300.658 95.2692 300.322 95.2692C300.005 95.2692 299.736 95.3394 299.516 95.4799C299.296 95.6142 299.135 95.8341 299.031 96.1395L298.435 95.773C298.557 95.431 298.783 95.1562 299.113 94.9485C299.443 94.7348 299.852 94.6279 300.341 94.6279C300.671 94.6279 300.97 94.6859 301.239 94.802C301.507 94.9119 301.718 95.0829 301.871 95.315C302.029 95.541 302.109 95.8341 302.109 96.1944V98.4114C302.109 98.6313 302.225 98.7412 302.457 98.7412C302.573 98.7412 302.686 98.726 302.796 98.6954L302.759 99.2726C302.637 99.3336 302.478 99.3642 302.283 99.3642C302.106 99.3642 301.947 99.3306 301.807 99.2634C301.666 99.1962 301.556 99.0955 301.477 98.9611C301.397 98.8206 301.358 98.6466 301.358 98.4389V98.3473L301.541 98.3748C301.468 98.613 301.342 98.8084 301.165 98.9611C300.988 99.1077 300.79 99.2176 300.57 99.2909C300.35 99.3581 300.133 99.3917 299.919 99.3917C299.651 99.3917 299.4 99.3459 299.168 99.2542C298.936 99.1626 298.75 99.0252 298.609 98.842C298.475 98.6527 298.408 98.4206 298.408 98.1458C298.408 97.8037 298.521 97.5228 298.747 97.3029C298.979 97.077 299.299 96.9243 299.709 96.8449L301.523 96.4876V97.0922L300.048 97.3945C299.748 97.4556 299.525 97.5411 299.379 97.6511C299.232 97.761 299.159 97.9137 299.159 98.1091C299.159 98.2984 299.232 98.4542 299.379 98.5763C299.532 98.6924 299.745 98.7504 300.02 98.7504C300.197 98.7504 300.365 98.729 300.524 98.6863C300.689 98.6374 300.835 98.5672 300.964 98.4756C301.092 98.3778 301.193 98.2587 301.266 98.1183C301.339 97.9717 301.376 97.8007 301.376 97.6053V96.341ZM304.792 93.4186V98.0358C304.792 98.2618 304.856 98.4297 304.984 98.5397C305.113 98.6496 305.277 98.7046 305.479 98.7046C305.656 98.7046 305.809 98.674 305.937 98.613C306.065 98.5519 306.181 98.4694 306.285 98.3656L306.542 98.9794C306.401 99.1077 306.233 99.2084 306.038 99.2817C305.849 99.355 305.629 99.3917 305.378 99.3917C305.146 99.3917 304.929 99.352 304.728 99.2726C304.526 99.1871 304.364 99.0558 304.242 98.8786C304.126 98.6954 304.065 98.4572 304.059 98.1641V93.6202L304.792 93.4186ZM306.459 94.7195V95.3516H303.143V94.7195H306.459ZM309.464 99.3917C309.03 99.3917 308.642 99.297 308.3 99.1077C307.964 98.9183 307.702 98.6466 307.512 98.2923C307.323 97.932 307.228 97.5045 307.228 97.0098C307.228 96.5151 307.323 96.0906 307.512 95.7364C307.702 95.3761 307.961 95.1012 308.291 94.9119C308.621 94.7226 308.996 94.6279 309.418 94.6279C309.845 94.6279 310.209 94.7195 310.508 94.9027C310.813 95.086 311.045 95.3364 311.204 95.6539C311.363 95.9654 311.442 96.3166 311.442 96.7075C311.442 96.8113 311.439 96.906 311.433 96.9915C311.427 97.077 311.418 97.1533 311.406 97.2205H307.705V96.5701H311.085L310.709 96.6433C310.709 96.2036 310.587 95.8646 310.343 95.6265C310.105 95.3883 309.79 95.2692 309.399 95.2692C309.1 95.2692 308.841 95.3394 308.621 95.4799C308.407 95.6142 308.239 95.8127 308.117 96.0754C308.001 96.3319 307.943 96.6433 307.943 97.0098C307.943 97.3701 308.004 97.6816 308.126 97.9442C308.248 98.2068 308.419 98.4084 308.639 98.5488C308.865 98.6832 309.134 98.7504 309.445 98.7504C309.781 98.7504 310.053 98.6863 310.261 98.558C310.474 98.4297 310.645 98.2557 310.774 98.0358L311.351 98.3748C311.235 98.5824 311.085 98.7626 310.902 98.9153C310.725 99.068 310.514 99.1871 310.27 99.2726C310.032 99.352 309.763 99.3917 309.464 99.3917ZM314.651 92.5667C314.81 92.5667 314.96 92.585 315.1 92.6216C315.241 92.6583 315.35 92.7102 315.43 92.7774L315.237 93.3728C315.164 93.324 315.085 93.2904 314.999 93.2721C314.914 93.2476 314.819 93.2354 314.715 93.2354C314.453 93.2354 314.248 93.2995 314.102 93.4278C313.955 93.55 313.882 93.7484 313.882 94.0233V94.7195V94.9577V99.3H313.149V93.95C313.149 93.7484 313.179 93.5622 313.24 93.3912C313.301 93.2202 313.393 93.0736 313.515 92.9514C313.643 92.8293 313.802 92.7346 313.992 92.6674C314.181 92.6003 314.401 92.5667 314.651 92.5667ZM315.412 94.7195V95.3516H312.233V94.7195H315.412ZM318.046 99.3917C317.753 99.3917 317.475 99.3367 317.212 99.2268C316.956 99.1168 316.745 98.9397 316.58 98.6954C316.422 98.445 316.342 98.1213 316.342 97.7243V94.7195H317.075V97.532C317.075 97.9961 317.176 98.3168 317.377 98.4939C317.579 98.6649 317.863 98.7504 318.229 98.7504C318.4 98.7504 318.568 98.7229 318.733 98.6679C318.898 98.6069 319.045 98.5153 319.173 98.3931C319.307 98.2648 319.411 98.103 319.484 97.9076C319.564 97.7121 319.603 97.48 319.603 97.2113V94.7195H320.336V99.3H319.695L319.649 98.6038C319.49 98.8786 319.274 99.0802 318.999 99.2084C318.73 99.3306 318.413 99.3917 318.046 99.3917ZM322.738 92.6125V98.1366C322.738 98.3687 322.781 98.5305 322.867 98.6221C322.952 98.7076 323.089 98.7504 323.279 98.7504C323.401 98.7504 323.502 98.7412 323.581 98.7229C323.66 98.7046 323.767 98.671 323.902 98.6221L323.783 99.2634C323.685 99.3062 323.578 99.3367 323.462 99.355C323.346 99.3794 323.227 99.3917 323.105 99.3917C322.732 99.3917 322.454 99.2909 322.271 99.0893C322.094 98.8878 322.005 98.5794 322.005 98.1641V92.6125H322.738Z" fill="white" fill-opacity="0.8"/>
<g clip-path="url(#clip0_986_168927)">
<circle cx="105.031" cy="135.729" r="6.49687" fill="black" fill-opacity="0.8"/>
<circle cx="141.846" cy="135.729" r="6.49687" fill="black" fill-opacity="0.8"/>
<path d="M122.571 156.445C126.181 156.445 129.682 155.209 132.492 152.943C133.351 152.23 134.457 151.886 135.569 151.989C136.119 152.04 136.654 152.198 137.143 152.456C137.633 152.713 138.066 153.065 138.42 153.49C139.133 154.348 139.476 155.455 139.374 156.567C139.271 157.678 138.732 158.704 137.873 159.417C133.579 163.002 128.164 164.965 122.571 164.965C116.978 164.965 111.562 163.002 107.269 159.417C106.41 158.704 105.87 157.678 105.768 156.567C105.665 155.455 106.009 154.348 106.722 153.49C107.436 152.631 108.461 152.091 109.573 151.989C110.684 151.886 111.791 152.23 112.65 152.943C115.46 155.209 118.961 156.445 122.571 156.445Z" fill="black" fill-opacity="0.8"/>
</g>
<g clip-path="url(#clip1_986_168927)">
<circle cx="195.332" cy="136.812" r="6.49687" fill="white" fill-opacity="0.8"/>
<circle cx="232.146" cy="136.812" r="6.49687" fill="white" fill-opacity="0.8"/>
<rect x="200.09" y="156.411" width="27.2869" height="8.55422" rx="4.27711" fill="white" fill-opacity="0.8"/>
</g>
<defs>
<linearGradient id="paint0_linear_986_168927" x1="84" y1="-7.44197e-07" x2="84" y2="189" gradientUnits="userSpaceOnUse">
<stop stop-color="#8FBCEA"/>
<stop offset="0.536458" stop-color="#DFDBEB"/>
<stop offset="0.651042" stop-color="#E5DAE0"/>
<stop offset="0.78125" stop-color="#E2C9CC"/>
<stop offset="0.880208" stop-color="#D6BDCC"/>
<stop offset="1" stop-color="#C9ACBF"/>
</linearGradient>
<linearGradient id="paint1_linear_986_168927" x1="13.9781" y1="24.8062" x2="173.843" y2="78.2225" gradientUnits="userSpaceOnUse">
<stop stop-color="#53A1EA"/>
<stop offset="1" stop-color="#9D9D9D"/>
</linearGradient>
<linearGradient id="paint2_linear_986_168927" x1="55.8571" y1="282.814" x2="196.047" y2="147.607" gradientUnits="userSpaceOnUse">
<stop/>
<stop offset="1" stop-color="#302C30" stop-opacity="0"/>
</linearGradient>
<radialGradient id="paint3_radial_986_168927" cx="0" cy="0" r="1" gradientUnits="userSpaceOnUse" gradientTransform="translate(168 101.719) rotate(111.024) scale(58.3532 51.9153)">
<stop stop-color="white"/>
<stop offset="0.938796" stop-color="white" stop-opacity="0"/>
</radialGradient>
<radialGradient id="paint4_radial_986_168927" cx="0" cy="0" r="1" gradientUnits="userSpaceOnUse" gradientTransform="translate(161.634 14.4375) rotate(76.6632) scale(234.705 241.93)">
<stop offset="0.114437" stop-color="white"/>
<stop offset="1" stop-color="white" stop-opacity="0"/>
</radialGradient>
<clipPath id="clip0_986_168927">
<rect width="69.3" height="69.3" fill="white" transform="translate(88.791 109.2)"/>
</clipPath>
<clipPath id="clip1_986_168927">
<rect width="69.3" height="69.3" fill="white" transform="translate(179.09 109.2)"/>
</clipPath>
</defs>
</svg>
