<svg width="274" height="154" viewBox="0 0 274 154" fill="none" xmlns="http://www.w3.org/2000/svg">
<rect width="273.778" height="154" fill="#F8F8F8"/>
<rect width="136.889" height="154" fill="url(#paint0_linear_986_167849)"/>
<rect width="136.889" height="154" fill="white" fill-opacity="0.5"/>
<path fill-rule="evenodd" clip-rule="evenodd" d="M30.0746 25.6667C31.491 25.6667 32.7116 25.9807 33.7362 26.6086C34.7759 27.2215 35.5746 28.0961 36.1321 29.2323C36.7047 30.3684 36.991 31.7214 36.991 33.2911C36.991 34.8608 36.7047 36.2138 36.1321 37.35C35.5746 38.4861 34.7759 39.3682 33.7362 39.9961C32.7116 40.609 31.491 40.9155 30.0746 40.9155C28.6581 40.9155 27.43 40.609 26.3903 39.9961C25.3657 39.3682 24.567 38.4861 23.9944 37.35C23.4369 36.2138 23.1581 34.8608 23.1581 33.2911C23.1581 31.7214 23.4369 30.3684 23.9944 29.2323C24.567 28.0961 25.3657 27.2215 26.3903 26.6086C27.43 25.9807 28.6581 25.6667 30.0746 25.6667ZM30.0746 27.3486C29.0499 27.3486 28.1609 27.5878 27.4074 28.0662C26.654 28.5296 26.0739 29.2098 25.667 30.1068C25.2602 30.9889 25.0568 32.0503 25.0568 33.2911C25.0568 34.5319 25.2602 35.6008 25.667 36.4978C26.0739 37.3799 26.654 38.0601 27.4074 38.5385C28.1609 39.0019 29.0499 39.2336 30.0746 39.2336C31.1143 39.2336 32.0033 39.0019 32.7417 38.5385C33.4951 38.0601 34.0753 37.3799 34.4821 36.4978C34.889 35.6008 35.0924 34.5319 35.0924 33.2911C35.0924 32.0503 34.889 30.9889 34.4821 30.1068C34.0753 29.2098 33.4951 28.5296 32.7417 28.0662C32.0033 27.5878 31.1143 27.3486 30.0746 27.3486ZM15.533 25.891C16.5426 25.891 17.4166 26.0779 18.155 26.4516C18.9084 26.8104 19.4961 27.3262 19.918 27.9989C20.3399 28.6716 20.5509 29.4715 20.5509 30.3983C20.5509 31.3252 20.3399 32.125 19.918 32.7978C19.4961 33.4705 18.9084 33.9938 18.155 34.3675C17.4166 34.7263 16.5426 34.9057 15.533 34.9057H12.0748V40.6912H10.2666V25.891H15.533ZM15.2618 33.2238C16.4372 33.2238 17.2961 32.9846 17.8385 32.5063C18.381 32.0129 18.6522 31.3103 18.6522 30.3983C18.6522 29.4715 18.381 28.7688 17.8385 28.2904C17.2961 27.812 16.4372 27.5728 15.2618 27.5728H12.0748V33.2238H15.2618ZM49.1524 26.474C48.2031 25.9358 47.0729 25.6667 45.762 25.6667C44.6167 25.6667 43.6222 25.8686 42.7784 26.2722C41.9496 26.6759 41.3092 27.214 40.8572 27.8868C40.4202 28.5446 40.2017 29.2696 40.2017 30.062C40.2017 30.645 40.3222 31.1907 40.5633 31.699C40.8195 32.1923 41.2263 32.6258 41.7839 32.9996C42.3565 33.3584 43.1024 33.6424 44.0215 33.8517L47.525 34.6366C48.3989 34.8309 48.9941 35.1225 49.3106 35.5111C49.627 35.8849 49.7852 36.311 49.7852 36.7894C49.7852 37.3126 49.6346 37.7611 49.3332 38.1348C49.0318 38.4936 48.5948 38.7702 48.0222 38.9645C47.4647 39.1439 46.8017 39.2336 46.0332 39.2336C45.2044 39.2336 44.4661 39.114 43.8181 38.8748C43.1852 38.6356 42.6428 38.2993 42.1907 37.8657C41.7387 37.4322 41.3695 36.9314 41.0832 36.3633L39.501 37.6415C39.8777 38.2544 40.3599 38.8076 40.9476 39.3009C41.5352 39.7942 42.2359 40.1904 43.0496 40.4894C43.8784 40.7735 44.8352 40.9155 45.9202 40.9155C47.0804 40.9155 48.09 40.7361 48.9489 40.3773C49.8078 40.0185 50.4709 39.5177 50.938 38.8748C51.4202 38.2171 51.6613 37.4696 51.6613 36.6324C51.6613 35.6905 51.375 34.9057 50.8024 34.2778C50.2448 33.635 49.2503 33.1566 47.8188 32.8426L44.5866 32.125C43.5921 31.9008 42.9291 31.5943 42.5976 31.2056C42.2661 30.802 42.1003 30.3385 42.1003 29.8153C42.1003 29.3519 42.2209 28.9407 42.4619 28.5819C42.703 28.2082 43.0798 27.9092 43.5921 27.685C44.1195 27.4607 44.7825 27.3486 45.5811 27.3486C46.5757 27.3486 47.4195 27.5504 48.1126 27.9541C48.8209 28.3428 49.4537 29.0155 50.0113 29.9723L51.5257 28.8062C50.8928 27.7747 50.1017 26.9973 49.1524 26.474ZM57.2583 25.891V40.6912H55.4501V25.891H57.2583ZM72.6259 27.5728V25.891H60.4204V27.5728H65.619V40.6912H67.4272V27.5728H72.6259ZM77.5875 25.891V40.6912H75.7793V25.891H77.5875ZM97.1239 25.891V40.6912H107.928V39.0094H98.9321V34.0311H105.668V32.3493H98.9321V27.5728H107.589V25.891H97.1239ZM92.2246 25.8911V40.6913H89.987L83.7486 30.7797L82.1664 27.999L80.8378 25.8911H82.7541L88.9698 35.7579L90.5746 38.6059H90.5972L90.5068 36.341V25.8911H92.2246Z" fill="black" fill-opacity="0.8"/>
<path d="M15.5334 42.1925C16.5431 42.1925 17.4171 42.3794 18.1555 42.7532C18.909 43.112 19.4967 43.6278 19.9187 44.3006C20.3406 44.9734 20.5516 45.7732 20.5516 46.7002C20.5516 47.6271 20.3406 48.427 19.9187 49.0998C19.4967 49.7726 18.909 50.2958 18.1555 50.6696C17.4171 51.0284 16.5431 51.2078 15.5334 51.2078H12.075V56.9938H10.2666V42.1925H15.5334ZM15.2622 49.5259C16.4376 49.5259 17.2966 49.2867 17.8391 48.8082C18.3816 48.3149 18.6528 47.6122 18.6528 46.7002C18.6528 45.7732 18.3816 45.0705 17.8391 44.5921C17.2966 44.1137 16.4376 43.8745 15.2622 43.8745H12.075V49.5259H15.2622Z" fill="black" fill-opacity="0.35"/>
<path d="M25.8716 55.3118H34.416V56.9938H24.0632V42.1925H25.8716V55.3118Z" fill="black" fill-opacity="0.35"/>
<path d="M35.7193 56.9938L41.5286 42.1925H43.676L49.4627 56.9938H47.5414L43.2917 45.9601L42.591 43.8969H42.5458L41.8903 45.8928L37.618 56.9938H35.7193ZM38.5674 52.8898V51.2078H46.5468V52.8898H38.5674Z" fill="black" fill-opacity="0.35"/>
<path d="M64.0131 53.2038C63.6966 54.041 63.2445 54.7661 62.6568 55.3791C62.0691 55.9771 61.3759 56.4331 60.5772 56.7471C59.7936 57.0611 58.9346 57.2181 58.0003 57.2181C56.5837 57.2181 55.3556 56.9116 54.3158 56.2986C53.291 55.6707 52.4924 54.7886 51.9197 53.6523C51.3621 52.516 51.0834 51.163 51.0834 49.5932C51.0834 48.0233 51.3621 46.6703 51.9197 45.534C52.4924 44.3978 53.291 43.5231 54.3158 42.9102C55.3556 42.2822 56.5687 41.9683 57.9551 41.9683C58.9195 41.9683 59.7785 42.1028 60.532 42.3719C61.2854 42.6261 61.9259 43.0148 62.4533 43.5381C62.9958 44.0464 63.4253 44.6744 63.7418 45.4219L61.9561 46.2517C61.6245 45.3995 61.1423 44.7566 60.5094 44.323C59.8915 43.8745 59.0853 43.6502 58.0907 43.6502C57.081 43.6502 56.1919 43.8894 55.4234 44.3679C54.6548 44.8313 54.0521 45.5041 53.615 46.3862C53.1931 47.2683 52.9821 48.3373 52.9821 49.5932C52.9821 50.8341 53.1856 51.9031 53.5924 52.8001C53.9993 53.6822 54.5795 54.3625 55.333 54.8409C56.0865 55.3044 56.9756 55.5361 58.0003 55.5361C58.9949 55.5361 59.8614 55.2894 60.5998 54.796C61.3382 54.2877 61.8732 53.5327 62.2047 52.531L64.0131 53.2038Z" fill="black" fill-opacity="0.35"/>
<path d="M67.4839 56.9938V42.1925H77.9497V43.8745H69.2922V48.6513H76.0283V50.3332H69.2922V55.3118H78.2887V56.9938H67.4839Z" fill="black" fill-opacity="0.35"/>
<path d="M11.8515 75.637V80.5779H11.2526V75.637H11.8515ZM13.6399 75.3376C13.7597 75.3376 13.8595 75.37 13.9393 75.4349C14.0242 75.4948 14.0891 75.5797 14.134 75.6894C14.1789 75.7943 14.2014 75.919 14.2014 76.0638C14.2014 76.2284 14.1714 76.3906 14.1115 76.5504C14.0566 76.7101 13.9693 76.8573 13.8495 76.992C13.7297 77.1268 13.575 77.2391 13.3854 77.3289L13.071 77.037C13.2057 76.992 13.323 76.9296 13.4228 76.8498C13.5276 76.7699 13.6125 76.6801 13.6773 76.5803C13.7422 76.4805 13.7846 76.3782 13.8046 76.2734L13.7747 76.2584C13.7547 76.2734 13.7297 76.2858 13.6998 76.2958C13.6698 76.3058 13.6249 76.3108 13.565 76.3108C13.5052 76.3108 13.4428 76.2933 13.3779 76.2584C13.318 76.2235 13.2656 76.1736 13.2207 76.1087C13.1758 76.0388 13.1533 75.949 13.1533 75.8392C13.1533 75.7493 13.1758 75.667 13.2207 75.5921C13.2656 75.5123 13.323 75.4499 13.3929 75.405C13.4677 75.3601 13.5501 75.3376 13.6399 75.3376ZM15.1904 80.5779V76.8348H15.7144L15.7519 77.4187C15.8866 77.1892 16.0613 77.022 16.2759 76.9172C16.4955 76.8124 16.7201 76.76 16.9496 76.76C17.2141 76.76 17.4637 76.8199 17.6983 76.9396C17.9328 77.0594 18.1125 77.2441 18.2373 77.4936C18.3171 77.3239 18.4294 77.1867 18.5741 77.0819C18.7189 76.9721 18.8761 76.8922 19.0458 76.8423C19.2204 76.7874 19.3851 76.76 19.5398 76.76C19.7794 76.76 20.0065 76.8099 20.2211 76.9097C20.4407 77.0095 20.6203 77.1642 20.7601 77.3738C20.8998 77.5834 20.9697 77.8529 20.9697 78.1823V80.5779H20.3708V78.2422C20.3708 77.9028 20.2859 77.6583 20.1163 77.5086C19.9466 77.3589 19.737 77.284 19.4874 77.284C19.2928 77.284 19.1106 77.3314 18.9409 77.4262C18.7713 77.5211 18.634 77.6608 18.5292 77.8455C18.4294 78.0301 18.3795 78.2572 18.3795 78.5267V80.5779H17.7806V78.2422C17.7806 77.9028 17.6958 77.6583 17.5261 77.5086C17.3564 77.3589 17.1468 77.284 16.8972 77.284C16.7325 77.284 16.5629 77.3289 16.3882 77.4187C16.2185 77.5036 16.0763 77.6408 15.9615 77.8305C15.8467 78.0201 15.7893 78.2697 15.7893 78.5791V80.5779H15.1904ZM26.2578 75.0756C26.3876 75.0756 26.5098 75.0906 26.6246 75.1205C26.7394 75.1504 26.8292 75.1929 26.8941 75.2478L26.7369 75.7344C26.677 75.6944 26.6121 75.667 26.5423 75.652C26.4724 75.6321 26.395 75.6221 26.3102 75.6221C26.0956 75.6221 25.9284 75.6745 25.8086 75.7793C25.6889 75.8791 25.629 76.0413 25.629 76.2659V76.8348V77.0295V80.5779H25.0301V76.206C25.0301 76.0413 25.055 75.8891 25.1049 75.7493C25.1548 75.6096 25.2297 75.4898 25.3295 75.39C25.4343 75.2902 25.5641 75.2128 25.7188 75.1579C25.8735 75.103 26.0532 75.0756 26.2578 75.0756ZM26.8791 76.8348V77.3514H24.2815V76.8348H26.8791ZM29.1393 80.6527C28.7849 80.6527 28.468 80.5754 28.1885 80.4207C27.914 80.266 27.6994 80.0439 27.5447 79.7544C27.39 79.46 27.3126 79.1106 27.3126 78.7064C27.3126 78.3021 27.39 77.9552 27.5447 77.6658C27.6994 77.3713 27.9115 77.1467 28.181 76.992C28.4505 76.8373 28.7575 76.76 29.1018 76.76C29.4512 76.76 29.7481 76.8348 29.9927 76.9845C30.2422 77.1343 30.4319 77.3389 30.5616 77.5984C30.6914 77.8529 30.7563 78.1399 30.7563 78.4593C30.7563 78.5442 30.7538 78.6215 30.7488 78.6914C30.7438 78.7613 30.7363 78.8236 30.7263 78.8785H27.7019V78.347H30.4643L30.1574 78.4069C30.1574 78.0476 30.0575 77.7706 29.8579 77.576C29.6633 77.3813 29.4063 77.284 29.0868 77.284C28.8423 77.284 28.6302 77.3414 28.4505 77.4562C28.2759 77.566 28.1386 77.7282 28.0388 77.9428C27.944 78.1524 27.8966 78.4069 27.8966 78.7064C27.8966 79.0008 27.9465 79.2553 28.0463 79.4699C28.1461 79.6845 28.2858 79.8492 28.4655 79.964C28.6502 80.0738 28.8698 80.1287 29.1243 80.1287C29.3988 80.1287 29.6209 80.0763 29.7905 79.9715C29.9652 79.8667 30.105 79.7245 30.2098 79.5448L30.6814 79.8218C30.5866 79.9915 30.4643 80.1387 30.3146 80.2635C30.1698 80.3882 29.9977 80.4856 29.798 80.5554C29.6034 80.6203 29.3838 80.6527 29.1393 80.6527ZM33.4598 80.6527C33.1055 80.6527 32.7886 80.5754 32.5091 80.4207C32.2346 80.266 32.02 80.0439 31.8653 79.7544C31.7106 79.46 31.6332 79.1106 31.6332 78.7064C31.6332 78.3021 31.7106 77.9552 31.8653 77.6658C32.02 77.3713 32.2321 77.1467 32.5016 76.992C32.7711 76.8373 33.0781 76.76 33.4224 76.76C33.7718 76.76 34.0687 76.8348 34.3133 76.9845C34.5628 77.1343 34.7525 77.3389 34.8822 77.5984C35.012 77.8529 35.0768 78.1399 35.0768 78.4593C35.0768 78.5442 35.0744 78.6215 35.0694 78.6914C35.0644 78.7613 35.0569 78.8236 35.0469 78.8785H32.0225V78.347H34.7849L34.478 78.4069C34.478 78.0476 34.3781 77.7706 34.1785 77.576C33.9839 77.3813 33.7269 77.284 33.4074 77.284C33.1629 77.284 32.9508 77.3414 32.7711 77.4562C32.5965 77.566 32.4592 77.7282 32.3594 77.9428C32.2646 78.1524 32.2172 78.4069 32.2172 78.7064C32.2172 79.0008 32.2671 79.2553 32.3669 79.4699C32.4667 79.6845 32.6064 79.8492 32.7861 79.964C32.9708 80.0738 33.1903 80.1287 33.4449 80.1287C33.7194 80.1287 33.9415 80.0763 34.1111 79.9715C34.2858 79.8667 34.4256 79.7245 34.5304 79.5448L35.002 79.8218C34.9072 79.9915 34.7849 80.1387 34.6352 80.2635C34.4904 80.3882 34.3183 80.4856 34.1186 80.5554C33.924 80.6203 33.7044 80.6527 33.4598 80.6527ZM36.7848 75.113V79.6271C36.7848 79.8168 36.8197 79.949 36.8896 80.0239C36.9595 80.0938 37.0718 80.1287 37.2265 80.1287C37.3263 80.1287 37.4086 80.1212 37.4735 80.1063C37.5384 80.0913 37.6257 80.0638 37.7355 80.0239L37.6382 80.5479C37.5584 80.5829 37.471 80.6078 37.3762 80.6228C37.2814 80.6428 37.1841 80.6527 37.0842 80.6527C36.7798 80.6527 36.5527 80.5704 36.403 80.4057C36.2583 80.241 36.1859 79.989 36.1859 79.6496V75.113H36.7848ZM38.8035 76.1162C38.6688 76.1162 38.559 76.0762 38.4741 75.9964C38.3943 75.9115 38.3544 75.8017 38.3544 75.667C38.3544 75.5322 38.3943 75.4249 38.4741 75.3451C38.559 75.2602 38.6688 75.2178 38.8035 75.2178C38.9383 75.2178 39.0456 75.2602 39.1254 75.3451C39.2103 75.4249 39.2527 75.5322 39.2527 75.667C39.2527 75.8017 39.2103 75.9115 39.1254 75.9964C39.0456 76.0762 38.9383 76.1162 38.8035 76.1162ZM39.103 76.8348V80.5779H38.5041V76.8348H39.103ZM40.4926 80.5779V76.8348H41.0166L41.069 77.6733L40.9717 77.5909C41.0515 77.3913 41.1588 77.2316 41.2936 77.1118C41.4283 76.987 41.5831 76.8972 41.7577 76.8423C41.9374 76.7874 42.1221 76.76 42.3117 76.76C42.5812 76.76 42.8258 76.8124 43.0453 76.9172C43.2649 77.017 43.4396 77.1717 43.5694 77.3813C43.7041 77.5909 43.7715 77.8579 43.7715 78.1823V80.5779H43.1726V78.3919C43.1726 77.9777 43.0828 77.6907 42.9031 77.531C42.7284 77.3663 42.5113 77.284 42.2518 77.284C42.0722 77.284 41.8925 77.3264 41.7128 77.4113C41.5332 77.4961 41.3834 77.6333 41.2637 77.823C41.1489 78.0126 41.0915 78.2672 41.0915 78.5866V80.5779H40.4926ZM48.2792 76.1461L48.4139 76.6776C48.4089 76.6776 48.4015 76.6776 48.3915 76.6776C48.3815 76.6776 48.3715 76.6776 48.3615 76.6776C48.117 76.6776 47.9273 76.7275 47.7926 76.8273C47.6628 76.9222 47.598 77.0769 47.598 77.2915L47.2311 77.1043C47.2311 76.9097 47.2761 76.74 47.3659 76.5953C47.4557 76.4505 47.578 76.3407 47.7327 76.2659C47.8874 76.186 48.0571 76.1461 48.2418 76.1461C48.2467 76.1461 48.2517 76.1461 48.2567 76.1461C48.2667 76.1461 48.2742 76.1461 48.2792 76.1461ZM47.1413 80.0988C47.4956 80.0988 47.7726 80.1811 47.9723 80.3458C48.1719 80.5055 48.2717 80.7201 48.2717 80.9896C48.2717 81.2342 48.1894 81.4463 48.0247 81.6259C47.865 81.8056 47.6479 81.9428 47.3734 82.0377C47.1039 82.1375 46.7994 82.1874 46.4601 82.1874C45.8712 82.1874 45.4295 82.0876 45.135 81.888C44.8456 81.6883 44.7008 81.4488 44.7008 81.1693C44.7008 80.9697 44.7657 80.79 44.8955 80.6303C45.0302 80.4756 45.2548 80.3882 45.5692 80.3683L45.5168 80.4806C45.3471 80.4356 45.2024 80.3608 45.0826 80.256C44.9678 80.1462 44.9104 79.989 44.9104 79.7844C44.9104 79.5797 44.9853 79.4051 45.135 79.2603C45.2897 79.1106 45.5168 79.0183 45.8163 78.9833L46.213 79.1855H46.1382C45.8936 79.2104 45.7189 79.2728 45.6141 79.3726C45.5143 79.4674 45.4644 79.5722 45.4644 79.687C45.4644 79.8268 45.5143 79.9316 45.6141 80.0015C45.7189 80.0663 45.8637 80.0988 46.0483 80.0988H47.1413ZM46.4526 81.6858C46.742 81.6858 46.9791 81.6559 47.1638 81.596C47.3534 81.5361 47.4931 81.4587 47.583 81.3639C47.6728 81.2691 47.7177 81.1668 47.7177 81.057C47.7177 80.9222 47.6628 80.8149 47.553 80.7351C47.4482 80.6552 47.2561 80.6153 46.9766 80.6153H45.8237C45.664 80.6153 45.5293 80.6552 45.4195 80.7351C45.3097 80.8199 45.2548 80.9347 45.2548 81.0795C45.2548 81.2641 45.3596 81.4113 45.5692 81.5211C45.7838 81.6309 46.0783 81.6858 46.4526 81.6858ZM46.4002 76.76C46.6996 76.76 46.9641 76.8149 47.1937 76.9247C47.4283 77.0295 47.6104 77.1767 47.7402 77.3663C47.8699 77.556 47.9348 77.7756 47.9348 78.0251C47.9348 78.2697 47.8699 78.4893 47.7402 78.6839C47.6104 78.8735 47.4283 79.0233 47.1937 79.1331C46.9641 79.2379 46.6996 79.2903 46.4002 79.2903C45.9061 79.2903 45.5268 79.173 45.2623 78.9384C44.9978 78.6989 44.8655 78.3944 44.8655 78.0251C44.8655 77.7756 44.9304 77.556 45.0602 77.3663C45.1949 77.1767 45.3771 77.0295 45.6066 76.9247C45.8362 76.8149 46.1007 76.76 46.4002 76.76ZM46.4002 77.2466C46.1407 77.2466 45.9236 77.3189 45.7489 77.4637C45.5742 77.6034 45.4869 77.7906 45.4869 78.0251C45.4869 78.2547 45.5742 78.4418 45.7489 78.5866C45.9236 78.7313 46.1407 78.8037 46.4002 78.8037C46.6597 78.8037 46.8768 78.7313 47.0515 78.5866C47.2261 78.4418 47.3135 78.2547 47.3135 78.0251C47.3135 77.7906 47.2261 77.6034 47.0515 77.4637C46.8768 77.3189 46.6597 77.2466 46.4002 77.2466ZM54.8149 76.1461L54.9497 76.6776C54.9447 76.6776 54.9372 76.6776 54.9272 76.6776C54.9172 76.6776 54.9072 76.6776 54.8973 76.6776C54.6527 76.6776 54.4631 76.7275 54.3283 76.8273C54.1986 76.9222 54.1337 77.0769 54.1337 77.2915L53.7669 77.1043C53.7669 76.9097 53.8118 76.74 53.9016 76.5953C53.9914 76.4505 54.1137 76.3407 54.2684 76.2659C54.4231 76.186 54.5928 76.1461 54.7775 76.1461C54.7825 76.1461 54.7875 76.1461 54.7925 76.1461C54.8024 76.1461 54.8099 76.1461 54.8149 76.1461ZM53.677 80.0988C54.0314 80.0988 54.3084 80.1811 54.508 80.3458C54.7076 80.5055 54.8074 80.7201 54.8074 80.9896C54.8074 81.2342 54.7251 81.4463 54.5604 81.6259C54.4007 81.8056 54.1836 81.9428 53.9091 82.0377C53.6396 82.1375 53.3352 82.1874 52.9958 82.1874C52.4069 82.1874 51.9652 82.0876 51.6708 81.888C51.3813 81.6883 51.2366 81.4488 51.2366 81.1693C51.2366 80.9697 51.3014 80.79 51.4312 80.6303C51.5659 80.4756 51.7905 80.3882 52.1049 80.3683L52.0525 80.4806C51.8829 80.4356 51.7381 80.3608 51.6183 80.256C51.5036 80.1462 51.4462 79.989 51.4462 79.7844C51.4462 79.5797 51.521 79.4051 51.6708 79.2603C51.8255 79.1106 52.0525 79.0183 52.352 78.9833L52.7488 79.1855H52.6739C52.4293 79.2104 52.2547 79.2728 52.1499 79.3726C52.05 79.4674 52.0001 79.5722 52.0001 79.687C52.0001 79.8268 52.05 79.9316 52.1499 80.0015C52.2547 80.0663 52.3994 80.0988 52.5841 80.0988H53.677ZM52.9883 81.6858C53.2778 81.6858 53.5148 81.6559 53.6995 81.596C53.8891 81.5361 54.0289 81.4587 54.1187 81.3639C54.2085 81.2691 54.2535 81.1668 54.2535 81.057C54.2535 80.9222 54.1986 80.8149 54.0888 80.7351C53.984 80.6552 53.7918 80.6153 53.5123 80.6153H52.3595C52.1998 80.6153 52.065 80.6552 51.9552 80.7351C51.8454 80.8199 51.7905 80.9347 51.7905 81.0795C51.7905 81.2641 51.8953 81.4113 52.1049 81.5211C52.3195 81.6309 52.614 81.6858 52.9883 81.6858ZM52.9359 76.76C53.2353 76.76 53.4999 76.8149 53.7294 76.9247C53.964 77.0295 54.1462 77.1767 54.2759 77.3663C54.4057 77.556 54.4706 77.7756 54.4706 78.0251C54.4706 78.2697 54.4057 78.4893 54.2759 78.6839C54.1462 78.8735 53.964 79.0233 53.7294 79.1331C53.4999 79.2379 53.2353 79.2903 52.9359 79.2903C52.4418 79.2903 52.0625 79.173 51.798 78.9384C51.5335 78.6989 51.4013 78.3944 51.4013 78.0251C51.4013 77.7756 51.4661 77.556 51.5959 77.3663C51.7306 77.1767 51.9128 77.0295 52.1424 76.9247C52.3719 76.8149 52.6365 76.76 52.9359 76.76ZM52.9359 77.2466C52.6764 77.2466 52.4593 77.3189 52.2846 77.4637C52.1099 77.6034 52.0226 77.7906 52.0226 78.0251C52.0226 78.2547 52.1099 78.4418 52.2846 78.5866C52.4593 78.7313 52.6764 78.8037 52.9359 78.8037C53.1954 78.8037 53.4125 78.7313 53.5872 78.5866C53.7619 78.4418 53.8492 78.2547 53.8492 78.0251C53.8492 77.7906 53.7619 77.6034 53.5872 77.4637C53.4125 77.3189 53.1954 77.2466 52.9359 77.2466ZM55.6476 80.5779V76.8348H56.1342L56.2165 77.4487C56.3213 77.2191 56.4735 77.0469 56.6732 76.9321C56.8778 76.8174 57.1248 76.76 57.4143 76.76C57.4792 76.76 57.549 76.765 57.6239 76.7749C57.7038 76.7849 57.7711 76.8049 57.826 76.8348L57.7212 77.3813C57.6663 77.3613 57.6064 77.3464 57.5416 77.3364C57.4767 77.3264 57.3843 77.3214 57.2646 77.3214C57.1099 77.3214 56.9526 77.3663 56.7929 77.4562C56.6382 77.546 56.5085 77.6833 56.4037 77.8679C56.2989 78.0476 56.2465 78.2771 56.2465 78.5566V80.5779H55.6476ZM60.787 78.1599C60.787 77.8804 60.7122 77.6658 60.5624 77.5161C60.4127 77.3613 60.2006 77.284 59.9261 77.284C59.6666 77.284 59.447 77.3414 59.2673 77.4562C59.0877 77.566 58.9554 77.7456 58.8706 77.9952L58.384 77.6957C58.4838 77.4162 58.6684 77.1917 58.9379 77.022C59.2074 76.8473 59.5418 76.76 59.9411 76.76C60.2106 76.76 60.4551 76.8074 60.6747 76.9022C60.8943 76.992 61.0665 77.1318 61.1913 77.3214C61.321 77.5061 61.3859 77.7456 61.3859 78.0401V79.8517C61.3859 80.0314 61.4807 80.1212 61.6704 80.1212C61.7652 80.1212 61.8575 80.1088 61.9474 80.0838L61.9174 80.5554C61.8176 80.6053 61.6878 80.6303 61.5281 80.6303C61.3834 80.6303 61.2537 80.6028 61.1389 80.5479C61.0241 80.493 60.9342 80.4107 60.8694 80.3009C60.8045 80.1861 60.772 80.0439 60.772 79.8742V79.7993L60.9218 79.8218C60.8619 80.0164 60.7596 80.1761 60.6148 80.3009C60.4701 80.4207 60.3079 80.5105 60.1282 80.5704C59.9486 80.6253 59.7714 80.6527 59.5967 80.6527C59.3771 80.6527 59.1725 80.6153 58.9829 80.5405C58.7932 80.4656 58.641 80.3533 58.5262 80.2036C58.4164 80.0489 58.3615 79.8592 58.3615 79.6346C58.3615 79.3551 58.4538 79.1256 58.6385 78.9459C58.8282 78.7613 59.0902 78.6365 59.4245 78.5716L60.9068 78.2796V78.7737L59.7015 79.0208C59.457 79.0707 59.2748 79.1405 59.155 79.2304C59.0353 79.3202 58.9754 79.445 58.9754 79.6047C58.9754 79.7594 59.0353 79.8867 59.155 79.9865C59.2798 80.0813 59.4545 80.1287 59.6791 80.1287C59.8238 80.1287 59.9611 80.1112 60.0908 80.0763C60.2256 80.0364 60.3453 79.979 60.4501 79.9041C60.5549 79.8243 60.6373 79.727 60.6972 79.6122C60.7571 79.4924 60.787 79.3527 60.787 79.193V78.1599ZM63.5784 75.7718V79.5448C63.5784 79.7295 63.6308 79.8667 63.7356 79.9565C63.8404 80.0464 63.9752 80.0913 64.1399 80.0913C64.2846 80.0913 64.4094 80.0663 64.5142 80.0164C64.619 79.9665 64.7138 79.8991 64.7986 79.8143L65.0082 80.3159C64.8935 80.4207 64.7562 80.503 64.5965 80.5629C64.4418 80.6228 64.2621 80.6527 64.0575 80.6527C63.8679 80.6527 63.6907 80.6203 63.526 80.5554C63.3613 80.4856 63.2291 80.3783 63.1292 80.2335C63.0344 80.0838 62.9845 79.8892 62.9795 79.6496V75.9365L63.5784 75.7718ZM64.9409 76.8348V77.3514H62.2309V76.8348H64.9409ZM67.3959 80.6527C67.0416 80.6527 66.7247 80.5754 66.4452 80.4207C66.1707 80.266 65.9561 80.0439 65.8014 79.7544C65.6467 79.46 65.5693 79.1106 65.5693 78.7064C65.5693 78.3021 65.6467 77.9552 65.8014 77.6658C65.9561 77.3713 66.1682 77.1467 66.4377 76.992C66.7072 76.8373 67.0141 76.76 67.3585 76.76C67.7078 76.76 68.0048 76.8348 68.2493 76.9845C68.4989 77.1343 68.6885 77.3389 68.8183 77.5984C68.948 77.8529 69.0129 78.1399 69.0129 78.4593C69.0129 78.5442 69.0104 78.6215 69.0054 78.6914C69.0004 78.7613 68.9929 78.8236 68.983 78.8785H65.9586V78.347H68.721L68.414 78.4069C68.414 78.0476 68.3142 77.7706 68.1146 77.576C67.9199 77.3813 67.6629 77.284 67.3435 77.284C67.099 77.284 66.8869 77.3414 66.7072 77.4562C66.5325 77.566 66.3953 77.7282 66.2955 77.9428C66.2006 78.1524 66.1532 78.4069 66.1532 78.7064C66.1532 79.0008 66.2031 79.2553 66.3029 79.4699C66.4028 79.6845 66.5425 79.8492 66.7222 79.964C66.9068 80.0738 67.1264 80.1287 67.3809 80.1287C67.6554 80.1287 67.8775 80.0763 68.0472 79.9715C68.2219 79.8667 68.3616 79.7245 68.4664 79.5448L68.938 79.8218C68.8432 79.9915 68.721 80.1387 68.5712 80.2635C68.4265 80.3882 68.2543 80.4856 68.0547 80.5554C67.86 80.6203 67.6405 80.6527 67.3959 80.6527ZM71.635 75.0756C71.7648 75.0756 71.8871 75.0906 72.0019 75.1205C72.1166 75.1504 72.2065 75.1929 72.2714 75.2478L72.1141 75.7344C72.0543 75.6944 71.9894 75.667 71.9195 75.652C71.8496 75.6321 71.7723 75.6221 71.6874 75.6221C71.4728 75.6221 71.3056 75.6745 71.1859 75.7793C71.0661 75.8791 71.0062 76.0413 71.0062 76.2659V76.8348V77.0295V80.5779H70.4073V76.206C70.4073 76.0413 70.4323 75.8891 70.4822 75.7493C70.5321 75.6096 70.6069 75.4898 70.7068 75.39C70.8116 75.2902 70.9413 75.2128 71.096 75.1579C71.2507 75.103 71.4304 75.0756 71.635 75.0756ZM72.2564 76.8348V77.3514H69.6587V76.8348H72.2564ZM74.4092 80.6527C74.1697 80.6527 73.9426 80.6078 73.728 80.518C73.5184 80.4282 73.3462 80.2834 73.2114 80.0838C73.0817 79.8792 73.0168 79.6147 73.0168 79.2903V76.8348H73.6157V79.1331C73.6157 79.5124 73.698 79.7744 73.8627 79.9191C74.0274 80.0588 74.2595 80.1287 74.5589 80.1287C74.6987 80.1287 74.8359 80.1063 74.9707 80.0613C75.1054 80.0114 75.2252 79.9366 75.33 79.8368C75.4398 79.732 75.5247 79.5997 75.5845 79.44C75.6494 79.2803 75.6819 79.0906 75.6819 78.871V76.8348H76.2808V80.5779H75.7567L75.7193 80.0089C75.5895 80.2335 75.4124 80.3982 75.1878 80.503C74.9682 80.6028 74.7087 80.6527 74.4092 80.6527ZM78.2435 75.113V79.6271C78.2435 79.8168 78.2785 79.949 78.3483 80.0239C78.4182 80.0938 78.5305 80.1287 78.6852 80.1287C78.785 80.1287 78.8674 80.1212 78.9322 80.1063C78.9971 80.0913 79.0845 80.0638 79.1943 80.0239L79.0969 80.5479C79.0171 80.5829 78.9297 80.6078 78.8349 80.6228C78.7401 80.6428 78.6428 80.6527 78.543 80.6527C78.2385 80.6527 78.0114 80.5704 77.8617 80.4057C77.717 80.241 77.6446 79.989 77.6446 79.6496V75.113H78.2435Z" fill="black" fill-opacity="0.8"/>
<rect width="136.889" height="154" transform="matrix(-1 0 0 1 273.777 0)" fill="url(#paint1_linear_986_167849)"/>
<rect width="136.889" height="154" transform="matrix(-1 0 0 1 273.777 0)" fill="url(#paint2_linear_986_167849)" fill-opacity="0.8"/>
<rect width="136.889" height="154" transform="matrix(-1 0 0 1 273.777 0)" fill="url(#paint3_radial_986_167849)" fill-opacity="0.4"/>
<rect width="136.889" height="154" transform="matrix(-1 0 0 1 273.777 0)" fill="url(#paint4_radial_986_167849)" fill-opacity="0.6"/>
<rect width="136.889" height="154" transform="matrix(-1 0 0 1 273.777 0)" fill="black" fill-opacity="0.7"/>
<rect width="136.889" height="154" transform="matrix(-1 0 0 1 273.777 0)" fill="black" fill-opacity="0.25"/>
<path fill-rule="evenodd" clip-rule="evenodd" d="M189.389 39.9961C190.429 40.609 191.657 40.9155 193.074 40.9155C194.324 40.9155 195.372 40.6613 196.215 40.153C196.836 39.7795 197.334 39.293 197.71 38.6934L197.775 40.6912H199.199V33.2238H192.802V34.9057H197.549V35.4215C197.549 36.0643 197.436 36.6249 197.21 37.1033C196.984 37.5817 196.668 37.9779 196.261 38.2918C195.869 38.6057 195.402 38.8449 194.859 39.0094C194.332 39.1589 193.759 39.2336 193.142 39.2336C192.042 39.2336 191.107 39.0019 190.339 38.5385C189.585 38.0601 189.013 37.3799 188.621 36.4978C188.244 35.6008 188.056 34.5319 188.056 33.2911C188.056 32.0503 188.274 30.9889 188.711 30.1068C189.163 29.2098 189.774 28.5296 190.542 28.0662C191.326 27.5878 192.222 27.3486 193.232 27.3486C194.272 27.3486 195.146 27.5728 195.854 28.0213C196.577 28.4549 197.105 29.0977 197.436 29.9498L199.086 29.0529C198.513 27.9017 197.76 27.0496 196.826 26.4965C195.907 25.9433 194.709 25.6667 193.232 25.6667C191.846 25.6667 190.618 25.9807 189.548 26.6086C188.478 27.2215 187.642 28.0961 187.039 29.2323C186.451 30.3684 186.157 31.7214 186.157 33.2911C186.157 34.8608 186.436 36.2138 186.994 37.35C187.566 38.4861 188.365 39.3682 189.389 39.9961ZM168.088 25.891V40.6912H165.85L159.612 30.7796L158.03 27.9989H158.007L158.098 30.2414V40.6912H156.38V25.891H158.618L164.833 35.7578L166.438 38.6057H166.461L166.37 36.3409V25.891H168.088ZM172.979 40.6912V25.891H183.444V27.5728H174.787V32.3493H181.523V34.0311H174.787V39.0094H183.783V40.6912H172.979ZM201.564 40.6912L207.373 25.891H209.52L215.307 40.6912H213.385L211.805 36.5875H205.042L203.463 40.6912H201.564ZM209.136 29.6583L211.157 34.9057H205.689L207.735 29.5911L208.39 27.5953H208.435L209.136 29.6583ZM226.796 27.5728V25.891H214.59V27.5728H219.789V40.6912H221.597V27.5728H226.796ZM231.757 25.891V40.6912H229.949V25.891H231.757ZM251.294 25.891V40.6912H262.098V39.0094H253.102V34.0311H259.838V32.3493H253.102V27.5728H261.759V25.891H251.294ZM246.218 25.8912V40.6914H243.98L237.742 30.7798L236.16 27.9991L234.831 25.8912H236.747L242.963 35.758L244.568 38.606H244.591L244.5 36.3411V25.8912H246.218Z" fill="white" fill-opacity="0.8"/>
<path d="M198.62 41.6528C199.931 41.6528 201.061 41.9219 202.01 42.4602C202.96 42.9835 203.751 43.7609 204.384 44.7925L202.869 45.9587C202.312 45.0018 201.679 44.329 200.971 43.9403C200.277 43.5366 199.434 43.3348 198.439 43.3348C197.64 43.3348 196.977 43.4469 196.45 43.6712C195.937 43.8954 195.561 44.1945 195.32 44.5682C195.078 44.9271 194.958 45.3382 194.958 45.8017C194.958 46.325 195.124 46.7884 195.455 47.1921C195.787 47.5808 196.45 47.8873 197.444 48.1116L200.677 48.8292C202.108 49.1432 203.103 49.6216 203.661 50.2645C204.233 50.8924 204.52 51.6773 204.52 52.6192C204.52 53.4565 204.278 54.204 203.796 54.8618C203.329 55.5047 202.666 56.0056 201.807 56.3644C200.948 56.7232 199.938 56.9026 198.778 56.9026C197.693 56.9026 196.736 56.7606 195.907 56.4765C195.094 56.1775 194.393 55.7813 193.805 55.2879C193.217 54.7946 192.735 54.2414 192.358 53.6284L193.941 52.3501C194.227 52.9182 194.596 53.4191 195.048 53.8527C195.5 54.2862 196.043 54.6226 196.676 54.8618C197.324 55.1011 198.062 55.2207 198.891 55.2207C199.66 55.2207 200.323 55.131 200.88 54.9516C201.453 54.7572 201.89 54.4806 202.191 54.1218C202.493 53.748 202.643 53.2995 202.643 52.7762C202.643 52.2978 202.485 51.8717 202.169 51.4979C201.852 51.1092 201.257 50.8177 200.383 50.6233L196.879 49.8384C195.96 49.6291 195.214 49.345 194.641 48.9862C194.084 48.6124 193.677 48.1788 193.421 47.6855C193.18 47.1771 193.059 46.6314 193.059 46.0484C193.059 45.256 193.278 44.5309 193.715 43.873C194.167 43.2002 194.807 42.662 195.636 42.2583C196.48 41.8547 197.475 41.6528 198.62 41.6528Z" fill="white" fill-opacity="0.35"/>
<path d="M213.575 41.8771C214.585 41.8771 215.459 42.064 216.198 42.4377C216.951 42.7966 217.539 43.3124 217.961 43.9852C218.383 44.6579 218.594 45.4578 218.594 46.3848C218.594 47.3117 218.383 48.1116 217.961 48.7844C217.539 49.4571 216.951 49.9804 216.198 50.3542C215.459 50.713 214.585 50.8924 213.575 50.8924H210.117V56.6784H208.309V41.8771H213.575ZM213.304 49.2105C214.48 49.2105 215.339 48.9712 215.881 48.4928C216.424 47.9994 216.695 47.2968 216.695 46.3848C216.695 45.4578 216.424 44.7551 215.881 44.2767C215.339 43.7983 214.48 43.5591 213.304 43.5591H210.117V49.2105H213.304Z" fill="white" fill-opacity="0.35"/>
<path d="M219.17 56.6784L224.979 41.8771H227.127L232.913 56.6784H230.992L226.742 45.6447L226.042 43.5815H225.997L225.341 45.5774L221.069 56.6784H219.17ZM222.018 52.5744V50.8924H229.997V52.5744H222.018Z" fill="white" fill-opacity="0.35"/>
<path d="M247.464 52.8883C247.147 53.7256 246.695 54.4507 246.107 55.0637C245.52 55.6617 244.827 56.1177 244.028 56.4317C243.244 56.7456 242.385 56.9026 241.451 56.9026C240.034 56.9026 238.806 56.5961 237.766 55.9832C236.742 55.3552 235.943 54.4731 235.37 53.3369C234.813 52.2006 234.534 50.8476 234.534 49.2777C234.534 47.7079 234.813 46.3549 235.37 45.2186C235.943 44.0823 236.742 43.2077 237.766 42.5947C238.806 41.9668 240.019 41.6528 241.406 41.6528C242.37 41.6528 243.229 41.7874 243.983 42.0565C244.736 42.3107 245.377 42.6994 245.904 43.2227C246.447 43.731 246.876 44.3589 247.193 45.1065L245.407 45.9362C245.075 45.084 244.593 44.4412 243.96 44.0076C243.342 43.5591 242.536 43.3348 241.541 43.3348C240.532 43.3348 239.643 43.574 238.874 44.0524C238.106 44.5159 237.503 45.1887 237.066 46.0708C236.644 46.9529 236.433 48.0219 236.433 49.2777C236.433 50.5186 236.636 51.5876 237.043 52.4847C237.45 53.3668 238.03 54.047 238.784 54.5255C239.537 54.9889 240.426 55.2207 241.451 55.2207C242.446 55.2207 243.312 54.974 244.05 54.4806C244.789 53.9723 245.324 53.2173 245.655 52.2156L247.464 52.8883Z" fill="white" fill-opacity="0.35"/>
<path d="M250.935 56.6784V41.8771H261.4V43.5591H252.743V48.3358H259.479V50.0178H252.743V54.9964H261.739V56.6784H250.935Z" fill="white" fill-opacity="0.35"/>
<path d="M198.586 75.6513V80.5779H197.989V75.6513H198.586ZM200.369 75.3527C200.489 75.3527 200.588 75.385 200.668 75.4497C200.752 75.5094 200.817 75.594 200.862 75.7035C200.907 75.808 200.929 75.9324 200.929 76.0767C200.929 76.241 200.899 76.4027 200.839 76.5619C200.785 76.7212 200.698 76.868 200.578 77.0023C200.459 77.1367 200.304 77.2487 200.115 77.3383L199.802 77.0471C199.936 77.0023 200.053 76.9401 200.153 76.8605C200.257 76.7809 200.342 76.6913 200.406 76.5918C200.471 76.4923 200.513 76.3903 200.533 76.2858L200.503 76.2708C200.484 76.2858 200.459 76.2982 200.429 76.3081C200.399 76.3181 200.354 76.3231 200.294 76.3231C200.235 76.3231 200.173 76.3057 200.108 76.2708C200.048 76.236 199.996 76.1862 199.951 76.1215C199.906 76.0519 199.884 75.9623 199.884 75.8528C199.884 75.7632 199.906 75.6811 199.951 75.6065C199.996 75.5269 200.053 75.4646 200.123 75.4199C200.197 75.3751 200.28 75.3527 200.369 75.3527ZM201.915 80.5779V76.8456H202.438L202.475 77.4278C202.609 77.1989 202.783 77.0322 202.997 76.9277C203.216 76.8232 203.44 76.7709 203.669 76.7709C203.933 76.7709 204.182 76.8307 204.416 76.9501C204.65 77.0695 204.829 77.2537 204.953 77.5025C205.033 77.3333 205.145 77.1964 205.289 77.0919C205.433 76.9824 205.59 76.9028 205.759 76.8531C205.934 76.7983 206.098 76.7709 206.252 76.7709C206.491 76.7709 206.717 76.8207 206.931 76.9202C207.15 77.0198 207.329 77.174 207.469 77.383C207.608 77.5921 207.678 77.8608 207.678 78.1892V80.5779H207.081V78.2489C207.081 77.9105 206.996 77.6667 206.827 77.5174C206.658 77.3681 206.449 77.2935 206.2 77.2935C206.006 77.2935 205.824 77.3407 205.655 77.4353C205.486 77.5298 205.349 77.6692 205.244 77.8533C205.145 78.0374 205.095 78.2639 205.095 78.5326V80.5779H204.498V78.2489C204.498 77.9105 204.413 77.6667 204.244 77.5174C204.075 77.3681 203.866 77.2935 203.617 77.2935C203.453 77.2935 203.284 77.3383 203.109 77.4278C202.94 77.5124 202.798 77.6493 202.684 77.8384C202.57 78.0275 202.512 78.2763 202.512 78.5848V80.5779H201.915ZM212.951 75.0914C213.08 75.0914 213.202 75.1063 213.316 75.1362C213.431 75.1661 213.52 75.2084 213.585 75.2631L213.428 75.7483C213.369 75.7085 213.304 75.6811 213.234 75.6662C213.165 75.6463 213.088 75.6363 213.003 75.6363C212.789 75.6363 212.622 75.6886 212.503 75.7931C212.383 75.8926 212.324 76.0543 212.324 76.2783V76.8456V77.0397V80.5779H211.726V76.2186C211.726 76.0543 211.751 75.9026 211.801 75.7632C211.851 75.6239 211.926 75.5045 212.025 75.4049C212.13 75.3054 212.259 75.2283 212.413 75.1735C212.567 75.1188 212.747 75.0914 212.951 75.0914ZM213.57 76.8456V77.3606H210.98V76.8456H213.57ZM215.824 80.6525C215.471 80.6525 215.155 80.5754 214.876 80.4211C214.602 80.2669 214.388 80.0454 214.234 79.7568C214.08 79.4632 214.002 79.1148 214.002 78.7117C214.002 78.3087 214.08 77.9628 214.234 77.6742C214.388 77.3806 214.6 77.1566 214.868 77.0023C215.137 76.8481 215.443 76.7709 215.787 76.7709C216.135 76.7709 216.431 76.8456 216.675 76.9949C216.924 77.1442 217.113 77.3482 217.242 77.607C217.371 77.8608 217.436 78.1469 217.436 78.4654C217.436 78.55 217.434 78.6271 217.429 78.6968C217.424 78.7665 217.416 78.8287 217.406 78.8834H214.391V78.3534H217.145L216.839 78.4132C216.839 78.0549 216.739 77.7787 216.54 77.5846C216.346 77.3905 216.09 77.2935 215.772 77.2935C215.528 77.2935 215.316 77.3507 215.137 77.4652C214.963 77.5746 214.826 77.7364 214.727 77.9504C214.632 78.1594 214.585 78.4132 214.585 78.7117C214.585 79.0053 214.634 79.2591 214.734 79.4731C214.834 79.6871 214.973 79.8513 215.152 79.9658C215.336 80.0753 215.555 80.13 215.809 80.13C216.083 80.13 216.304 80.0778 216.473 79.9733C216.647 79.8687 216.787 79.7269 216.891 79.5478L217.362 79.824C217.267 79.9932 217.145 80.14 216.996 80.2644C216.851 80.3888 216.68 80.4858 216.481 80.5555C216.287 80.6202 216.068 80.6525 215.824 80.6525ZM220.132 80.6525C219.779 80.6525 219.463 80.5754 219.184 80.4211C218.91 80.2669 218.696 80.0454 218.542 79.7568C218.388 79.4632 218.311 79.1148 218.311 78.7117C218.311 78.3087 218.388 77.9628 218.542 77.6742C218.696 77.3806 218.908 77.1566 219.177 77.0023C219.445 76.8481 219.751 76.7709 220.095 76.7709C220.443 76.7709 220.739 76.8456 220.983 76.9949C221.232 77.1442 221.421 77.3482 221.55 77.607C221.68 77.8608 221.744 78.1469 221.744 78.4654C221.744 78.55 221.742 78.6271 221.737 78.6968C221.732 78.7665 221.724 78.8287 221.714 78.8834H218.699V78.3534H221.453L221.147 78.4132C221.147 78.0549 221.048 77.7787 220.849 77.5846C220.655 77.3905 220.398 77.2935 220.08 77.2935C219.836 77.2935 219.624 77.3507 219.445 77.4652C219.271 77.5746 219.134 77.7364 219.035 77.9504C218.94 78.1594 218.893 78.4132 218.893 78.7117C218.893 79.0053 218.943 79.2591 219.042 79.4731C219.142 79.6871 219.281 79.8513 219.46 79.9658C219.644 80.0753 219.863 80.13 220.117 80.13C220.391 80.13 220.612 80.0778 220.781 79.9733C220.956 79.8687 221.095 79.7269 221.199 79.5478L221.67 79.824C221.575 79.9932 221.453 80.14 221.304 80.2644C221.16 80.3888 220.988 80.4858 220.789 80.5555C220.595 80.6202 220.376 80.6525 220.132 80.6525ZM223.447 75.1287V79.6299C223.447 79.819 223.482 79.9509 223.552 80.0255C223.622 80.0952 223.734 80.13 223.888 80.13C223.987 80.13 224.069 80.1225 224.134 80.1076C224.199 80.0927 224.286 80.0653 224.395 80.0255L224.298 80.548C224.219 80.5829 224.132 80.6077 224.037 80.6227C223.943 80.6426 223.845 80.6525 223.746 80.6525C223.442 80.6525 223.216 80.5704 223.067 80.4062C222.922 80.242 222.85 79.9907 222.85 79.6523V75.1287H223.447ZM225.46 76.129C225.326 76.129 225.216 76.0892 225.132 76.0096C225.052 75.925 225.012 75.8155 225.012 75.6811C225.012 75.5468 225.052 75.4398 225.132 75.3601C225.216 75.2755 225.326 75.2332 225.46 75.2332C225.595 75.2332 225.702 75.2755 225.781 75.3601C225.866 75.4398 225.908 75.5468 225.908 75.6811C225.908 75.8155 225.866 75.925 225.781 76.0096C225.702 76.0892 225.595 76.129 225.46 76.129ZM225.759 76.8456V80.5779H225.162V76.8456H225.759ZM227.145 80.5779V76.8456H227.667L227.719 77.6816L227.622 77.5995C227.702 77.4005 227.809 77.2412 227.943 77.1218C228.078 76.9974 228.232 76.9078 228.406 76.8531C228.585 76.7983 228.769 76.7709 228.958 76.7709C229.227 76.7709 229.471 76.8232 229.69 76.9277C229.909 77.0272 230.083 77.1815 230.212 77.3905C230.347 77.5995 230.414 77.8658 230.414 78.1892V80.5779H229.817V78.3982C229.817 77.9852 229.727 77.699 229.548 77.5398C229.374 77.3756 229.157 77.2935 228.899 77.2935C228.72 77.2935 228.54 77.3358 228.361 77.4204C228.182 77.505 228.033 77.6418 227.913 77.8309C227.799 78.02 227.742 78.2738 227.742 78.5923V80.5779H227.145ZM234.909 76.1589L235.043 76.6888C235.038 76.6888 235.031 76.6888 235.021 76.6888C235.011 76.6888 235.001 76.6888 234.991 76.6888C234.747 76.6888 234.558 76.7386 234.424 76.8381C234.294 76.9327 234.229 77.0869 234.229 77.3009L233.864 77.1143C233.864 76.9202 233.908 76.751 233.998 76.6067C234.088 76.4624 234.21 76.3529 234.364 76.2783C234.518 76.1987 234.687 76.1589 234.871 76.1589C234.876 76.1589 234.881 76.1589 234.886 76.1589C234.896 76.1589 234.904 76.1589 234.909 76.1589ZM233.774 80.1001C234.127 80.1001 234.404 80.1823 234.603 80.3465C234.802 80.5057 234.901 80.7197 234.901 80.9884C234.901 81.2323 234.819 81.4438 234.655 81.6229C234.496 81.8021 234.279 81.9389 234.005 82.0335C233.737 82.133 233.433 82.1828 233.095 82.1828C232.508 82.1828 232.067 82.0832 231.774 81.8842C231.485 81.6851 231.341 81.4463 231.341 81.1676C231.341 80.9685 231.405 80.7894 231.535 80.6301C231.669 80.4759 231.893 80.3888 232.207 80.3689L232.154 80.4808C231.985 80.4361 231.841 80.3614 231.721 80.2569C231.607 80.1474 231.55 79.9907 231.55 79.7866C231.55 79.5826 231.624 79.4084 231.774 79.2641C231.928 79.1148 232.154 79.0228 232.453 78.9879L232.848 79.1895H232.774C232.53 79.2144 232.356 79.2766 232.251 79.3761C232.152 79.4706 232.102 79.5751 232.102 79.6896C232.102 79.8289 232.152 79.9334 232.251 80.0031C232.356 80.0678 232.5 80.1001 232.684 80.1001H233.774ZM233.087 81.6826C233.376 81.6826 233.612 81.6528 233.796 81.5931C233.986 81.5333 234.125 81.4562 234.215 81.3617C234.304 81.2671 234.349 81.1651 234.349 81.0556C234.349 80.9213 234.294 80.8143 234.185 80.7346C234.08 80.655 233.889 80.6152 233.61 80.6152H232.46C232.301 80.6152 232.167 80.655 232.057 80.7346C231.948 80.8192 231.893 80.9337 231.893 81.078C231.893 81.2621 231.998 81.4089 232.207 81.5184C232.421 81.6279 232.714 81.6826 233.087 81.6826ZM233.035 76.7709C233.334 76.7709 233.597 76.8257 233.826 76.9352C234.06 77.0397 234.242 77.1865 234.371 77.3756C234.501 77.5647 234.565 77.7836 234.565 78.0325C234.565 78.2763 234.501 78.4953 234.371 78.6893C234.242 78.8784 234.06 79.0277 233.826 79.1372C233.597 79.2417 233.334 79.294 233.035 79.294C232.542 79.294 232.164 79.177 231.9 78.9431C231.637 78.7043 231.505 78.4007 231.505 78.0325C231.505 77.7836 231.57 77.5647 231.699 77.3756C231.833 77.1865 232.015 77.0397 232.244 76.9352C232.473 76.8257 232.737 76.7709 233.035 76.7709ZM233.035 77.2561C232.776 77.2561 232.56 77.3283 232.386 77.4726C232.212 77.612 232.124 77.7986 232.124 78.0325C232.124 78.2614 232.212 78.448 232.386 78.5923C232.56 78.7366 232.776 78.8088 233.035 78.8088C233.294 78.8088 233.51 78.7366 233.685 78.5923C233.859 78.448 233.946 78.2614 233.946 78.0325C233.946 77.7986 233.859 77.612 233.685 77.4726C233.51 77.3283 233.294 77.2561 233.035 77.2561ZM238.283 80.5779V75.1287H238.88V77.4054C239.01 77.1815 239.181 77.0198 239.395 76.9202C239.609 76.8207 239.843 76.7709 240.097 76.7709C240.366 76.7709 240.61 76.8232 240.828 76.9277C241.047 77.0272 241.222 77.1815 241.351 77.3905C241.485 77.5995 241.553 77.8658 241.553 78.1892V80.5779H240.955V78.3982C240.955 77.9852 240.866 77.699 240.687 77.5398C240.512 77.3756 240.296 77.2935 240.037 77.2935C239.858 77.2935 239.679 77.3358 239.5 77.4204C239.321 77.505 239.171 77.6443 239.052 77.8384C238.937 78.0275 238.88 78.2813 238.88 78.5998V80.5779H238.283ZM245.084 78.1668C245.084 77.8881 245.01 77.6742 244.86 77.5249C244.711 77.3706 244.5 77.2935 244.226 77.2935C243.967 77.2935 243.748 77.3507 243.569 77.4652C243.39 77.5746 243.258 77.7538 243.173 78.0026L242.688 77.704C242.788 77.4253 242.972 77.2014 243.241 77.0322C243.509 76.858 243.843 76.7709 244.241 76.7709C244.51 76.7709 244.753 76.8182 244.972 76.9128C245.191 77.0023 245.363 77.1417 245.487 77.3308C245.617 77.5149 245.681 77.7538 245.681 78.0474V79.8538C245.681 80.033 245.776 80.1225 245.965 80.1225C246.06 80.1225 246.152 80.1101 246.241 80.0852L246.211 80.5555C246.112 80.6053 245.983 80.6301 245.823 80.6301C245.679 80.6301 245.55 80.6028 245.435 80.548C245.321 80.4933 245.231 80.4112 245.166 80.3017C245.102 80.1872 245.069 80.0454 245.069 79.8762V79.8016L245.219 79.824C245.159 80.018 245.057 80.1773 244.913 80.3017C244.768 80.4211 244.607 80.5107 244.427 80.5704C244.248 80.6252 244.072 80.6525 243.897 80.6525C243.678 80.6525 243.474 80.6152 243.285 80.5406C243.096 80.4659 242.944 80.3539 242.83 80.2047C242.721 80.0504 242.666 79.8613 242.666 79.6373C242.666 79.3587 242.758 79.1298 242.942 78.9506C243.131 78.7665 243.392 78.6421 243.726 78.5774L245.204 78.2863V78.7789L244.002 79.0252C243.758 79.075 243.576 79.1447 243.457 79.2343C243.338 79.3238 243.278 79.4482 243.278 79.6075C243.278 79.7618 243.338 79.8887 243.457 79.9882C243.581 80.0827 243.756 80.13 243.98 80.13C244.124 80.13 244.261 80.1126 244.39 80.0778C244.524 80.0379 244.644 79.9807 244.748 79.9061C244.853 79.8264 244.935 79.7294 244.995 79.615C245.054 79.4955 245.084 79.3562 245.084 79.1969V78.1668ZM247.868 75.7856V79.5478C247.868 79.7319 247.92 79.8687 248.024 79.9583C248.129 80.0479 248.263 80.0927 248.428 80.0927C248.572 80.0927 248.696 80.0678 248.801 80.018C248.905 79.9683 249 79.9011 249.084 79.8165L249.293 80.3166C249.179 80.4211 249.042 80.5032 248.883 80.563C248.729 80.6227 248.549 80.6525 248.345 80.6525C248.156 80.6525 247.98 80.6202 247.815 80.5555C247.651 80.4858 247.519 80.3788 247.42 80.2345C247.325 80.0852 247.275 79.8911 247.271 79.6523V75.9498L247.868 75.7856ZM249.226 76.8456V77.3606H246.524V76.8456H249.226ZM251.674 80.6525C251.321 80.6525 251.005 80.5754 250.726 80.4211C250.453 80.2669 250.239 80.0454 250.084 79.7568C249.93 79.4632 249.853 79.1148 249.853 78.7117C249.853 78.3087 249.93 77.9628 250.084 77.6742C250.239 77.3806 250.45 77.1566 250.719 77.0023C250.987 76.8481 251.294 76.7709 251.637 76.7709C251.985 76.7709 252.281 76.8456 252.525 76.9949C252.774 77.1442 252.963 77.3482 253.092 77.607C253.222 77.8608 253.287 78.1469 253.287 78.4654C253.287 78.55 253.284 78.6271 253.279 78.6968C253.274 78.7665 253.267 78.8287 253.257 78.8834H250.241V78.3534H252.995L252.689 78.4132C252.689 78.0549 252.59 77.7787 252.391 77.5846C252.197 77.3905 251.94 77.2935 251.622 77.2935C251.378 77.2935 251.167 77.3507 250.987 77.4652C250.813 77.5746 250.676 77.7364 250.577 77.9504C250.482 78.1594 250.435 78.4132 250.435 78.7117C250.435 79.0053 250.485 79.2591 250.584 79.4731C250.684 79.6871 250.823 79.8513 251.002 79.9658C251.187 80.0753 251.405 80.13 251.659 80.13C251.933 80.13 252.154 80.0778 252.324 79.9733C252.498 79.8687 252.637 79.7269 252.742 79.5478L253.212 79.824C253.117 79.9932 252.995 80.14 252.846 80.2644C252.702 80.3888 252.53 80.4858 252.331 80.5555C252.137 80.6202 251.918 80.6525 251.674 80.6525ZM255.901 75.0914C256.031 75.0914 256.152 75.1063 256.267 75.1362C256.381 75.1661 256.471 75.2084 256.536 75.2631L256.379 75.7483C256.319 75.7085 256.254 75.6811 256.185 75.6662C256.115 75.6463 256.038 75.6363 255.953 75.6363C255.739 75.6363 255.573 75.6886 255.453 75.7931C255.334 75.8926 255.274 76.0543 255.274 76.2783V76.8456V77.0397V80.5779H254.677V76.2186C254.677 76.0543 254.702 75.9026 254.752 75.7632C254.801 75.6239 254.876 75.5045 254.976 75.4049C255.08 75.3054 255.209 75.2283 255.364 75.1735C255.518 75.1188 255.697 75.0914 255.901 75.0914ZM256.521 76.8456V77.3606H253.93V76.8456H256.521ZM258.667 80.6525C258.428 80.6525 258.202 80.6077 257.988 80.5182C257.779 80.4286 257.607 80.2843 257.473 80.0852C257.344 79.8812 257.279 79.6174 257.279 79.294V76.8456H257.876V79.1372C257.876 79.5154 257.958 79.7767 258.122 79.921C258.287 80.0603 258.518 80.13 258.817 80.13C258.956 80.13 259.093 80.1076 259.227 80.0628C259.362 80.0131 259.481 79.9384 259.585 79.8389C259.695 79.7344 259.78 79.6025 259.839 79.4433C259.904 79.284 259.936 79.0949 259.936 78.876V76.8456H260.533V80.5779H260.011L259.974 80.0106C259.844 80.2345 259.668 80.3987 259.444 80.5032C259.225 80.6028 258.966 80.6525 258.667 80.6525ZM262.491 75.1287V79.6299C262.491 79.819 262.525 79.9509 262.595 80.0255C262.665 80.0952 262.777 80.13 262.931 80.13C263.031 80.13 263.113 80.1225 263.177 80.1076C263.242 80.0927 263.329 80.0653 263.439 80.0255L263.342 80.548C263.262 80.5829 263.175 80.6077 263.08 80.6227C262.986 80.6426 262.889 80.6525 262.789 80.6525C262.486 80.6525 262.259 80.5704 262.11 80.4062C261.966 80.242 261.893 79.9907 261.893 79.6523V75.1287H262.491Z" fill="white" fill-opacity="0.8"/>
<g clip-path="url(#clip0_986_167849)">
<circle cx="85.1014" cy="110.594" r="5.29375" fill="black" fill-opacity="0.8"/>
<circle cx="115.098" cy="110.594" r="5.29375" fill="black" fill-opacity="0.8"/>
<path d="M99.3934 127.473C102.335 127.473 105.187 126.467 107.477 124.62C108.177 124.039 109.079 123.759 109.984 123.843C110.433 123.884 110.869 124.013 111.267 124.223C111.666 124.433 112.019 124.719 112.307 125.066C112.889 125.765 113.168 126.667 113.085 127.573C113.001 128.479 112.561 129.314 111.862 129.896C108.363 132.816 103.951 134.416 99.3934 134.416C94.8361 134.416 90.4234 132.816 86.9249 129.896C86.2254 129.314 85.7855 128.479 85.702 127.573C85.6185 126.667 85.8982 125.765 86.4796 125.066C87.0611 124.366 87.8965 123.926 88.8023 123.843C89.7081 123.759 90.6099 124.039 91.3094 124.62C93.5993 126.467 96.452 127.473 99.3934 127.473Z" fill="black" fill-opacity="0.8"/>
</g>
<g clip-path="url(#clip1_986_167849)">
<circle cx="158.679" cy="111.476" r="5.29375" fill="white" fill-opacity="0.8"/>
<circle cx="188.676" cy="111.476" r="5.29375" fill="white" fill-opacity="0.8"/>
<rect x="162.556" y="127.446" width="22.2337" height="6.9701" rx="3.48505" fill="white" fill-opacity="0.8"/>
</g>
<defs>
<linearGradient id="paint0_linear_986_167849" x1="68.4444" y1="-6.06383e-07" x2="68.4444" y2="154" gradientUnits="userSpaceOnUse">
<stop stop-color="#8FBCEA"/>
<stop offset="0.536458" stop-color="#DFDBEB"/>
<stop offset="0.651042" stop-color="#E5DAE0"/>
<stop offset="0.78125" stop-color="#E2C9CC"/>
<stop offset="0.880208" stop-color="#D6BDCC"/>
<stop offset="1" stop-color="#C9ACBF"/>
</linearGradient>
<linearGradient id="paint1_linear_986_167849" x1="11.3896" y1="20.2125" x2="141.65" y2="63.7369" gradientUnits="userSpaceOnUse">
<stop stop-color="#53A1EA"/>
<stop offset="1" stop-color="#9D9D9D"/>
</linearGradient>
<linearGradient id="paint2_linear_986_167849" x1="45.5132" y1="230.441" x2="159.742" y2="120.272" gradientUnits="userSpaceOnUse">
<stop/>
<stop offset="1" stop-color="#302C30" stop-opacity="0"/>
</linearGradient>
<radialGradient id="paint3_radial_986_167849" cx="0" cy="0" r="1" gradientUnits="userSpaceOnUse" gradientTransform="translate(136.889 82.8819) rotate(111.024) scale(47.547 42.3013)">
<stop stop-color="white"/>
<stop offset="0.938796" stop-color="white" stop-opacity="0"/>
</radialGradient>
<radialGradient id="paint4_radial_986_167849" cx="0" cy="0" r="1" gradientUnits="userSpaceOnUse" gradientTransform="translate(131.702 11.7639) rotate(76.6632) scale(191.241 197.128)">
<stop offset="0.114437" stop-color="white"/>
<stop offset="1" stop-color="white" stop-opacity="0"/>
</radialGradient>
<clipPath id="clip0_986_167849">
<rect width="56.4667" height="56.4667" fill="white" transform="translate(71.8672 88.9775)"/>
</clipPath>
<clipPath id="clip1_986_167849">
<rect width="56.4667" height="56.4667" fill="white" transform="translate(145.444 88.9775)"/>
</clipPath>
</defs>
</svg>
