<svg width="20" height="20" viewBox="0 0 20 20" fill="none" xmlns="http://www.w3.org/2000/svg">
<path fill-rule="evenodd" clip-rule="evenodd" d="M20 0H0V20H20V0ZM13.5933 3.12988C15.7508 3.12988 17.5 4.80905 17.5 6.87988C17.5 12.8965 10 16.8799 10 16.8799C10 16.8799 2.5 12.8965 2.5 6.87988C2.5 4.80905 4.25 3.12988 6.40583 3.12988C8.01917 3.12988 9.40417 4.06822 10 5.40738C10.5958 4.06822 11.9808 3.12988 13.5933 3.12988Z" fill="#0B0C32"/>
<path d="M17.5 6.875C17.5 4.80417 15.7508 3.125 13.5933 3.125C11.9808 3.125 10.5958 4.06333 10 5.4025C9.40417 4.06333 8.01917 3.125 6.40583 3.125C4.25 3.125 2.5 4.80417 2.5 6.875C2.5 12.8917 10 16.875 10 16.875C10 16.875 17.5 12.8917 17.5 6.875Z" stroke="white" stroke-opacity="0.8" stroke-width="1.5" stroke-linecap="round" stroke-linejoin="round"/>
</svg>
