<svg width="15" height="14" viewBox="0 0 15 14" fill="none" xmlns="http://www.w3.org/2000/svg">
<path d="M11.9443 12.25H2.94434C2.53184 12.25 2.19434 11.9125 2.19434 11.5V2.5C2.19434 2.0875 2.53184 1.75 2.94434 1.75H6.69434C7.10684 1.75 7.44434 1.4125 7.44434 1C7.44434 0.5875 7.10684 0.25 6.69434 0.25H2.19434C1.36184 0.25 0.694336 0.925 0.694336 1.75V12.25C0.694336 13.075 1.36934 13.75 2.19434 13.75H12.6943C13.5193 13.75 14.1943 13.075 14.1943 12.25V7.75C14.1943 7.3375 13.8568 7 13.4443 7C13.0318 7 12.6943 7.3375 12.6943 7.75V11.5C12.6943 11.9125 12.3568 12.25 11.9443 12.25ZM8.94434 1C8.94434 1.4125 9.28184 1.75 9.69434 1.75H11.6368L4.78934 8.5975C4.49684 8.89 4.49684 9.3625 4.78934 9.655C5.08184 9.9475 5.55434 9.9475 5.84684 9.655L12.6943 2.8075V4.75C12.6943 5.1625 13.0318 5.5 13.4443 5.5C13.8568 5.5 14.1943 5.1625 14.1943 4.75V1C14.1943 0.5875 13.8568 0.25 13.4443 0.25H9.69434C9.28184 0.25 8.94434 0.5875 8.94434 1Z" fill="#90CAF9"/>
</svg>
