<svg width="123" height="40" viewBox="0 0 123 40" fill="none" xmlns="http://www.w3.org/2000/svg">
<g clip-path="url(#clip0_1356_169111)">
<path d="M13.152 15.172H17.536C18.112 15.172 18.656 15.2307 19.168 15.348C19.6907 15.4547 20.144 15.6413 20.528 15.908C20.9227 16.164 21.232 16.516 21.456 16.964C21.6907 17.4013 21.808 17.9507 21.808 18.612C21.808 19.412 21.6 20.0947 21.184 20.66C20.768 21.2147 20.16 21.5667 19.36 21.716L22.24 26.5H19.248L16.88 21.972H15.648V26.5H13.152V15.172ZM15.648 19.86H17.12C17.344 19.86 17.5787 19.8547 17.824 19.844C18.08 19.8227 18.3093 19.7747 18.512 19.7C18.7147 19.6147 18.88 19.4867 19.008 19.316C19.1467 19.1453 19.216 18.9053 19.216 18.596C19.216 18.308 19.1573 18.0787 19.04 17.908C18.9227 17.7373 18.7733 17.6093 18.592 17.524C18.4107 17.428 18.2027 17.364 17.968 17.332C17.7333 17.3 17.504 17.284 17.28 17.284H15.648V19.86ZM25.223 15.172H32.919V17.476H27.719V19.588H32.631V21.892H27.719V24.196H33.207V26.5H25.223V15.172ZM42.4051 17.94C42.2025 17.684 41.9251 17.4973 41.5731 17.38C41.2318 17.252 40.9065 17.188 40.5971 17.188C40.4158 17.188 40.2291 17.2093 40.0371 17.252C39.8451 17.2947 39.6638 17.364 39.4931 17.46C39.3225 17.5453 39.1838 17.6627 39.0771 17.812C38.9705 17.9613 38.9171 18.1427 38.9171 18.356C38.9171 18.6973 39.0451 18.9587 39.3011 19.14C39.5571 19.3213 39.8771 19.476 40.2611 19.604C40.6558 19.732 41.0771 19.86 41.5251 19.988C41.9731 20.116 42.3891 20.2973 42.7731 20.532C43.1678 20.7667 43.4931 21.0813 43.7491 21.476C44.0051 21.8707 44.1331 22.3987 44.1331 23.06C44.1331 23.6893 44.0158 24.2387 43.7811 24.708C43.5465 25.1773 43.2265 25.5667 42.8211 25.876C42.4265 26.1853 41.9625 26.4147 41.4291 26.564C40.9065 26.7133 40.3518 26.788 39.7651 26.788C39.0291 26.788 38.3465 26.676 37.7171 26.452C37.0878 26.228 36.5011 25.8653 35.9571 25.364L37.7331 23.412C37.9891 23.7533 38.3091 24.02 38.6931 24.212C39.0878 24.3933 39.4931 24.484 39.9091 24.484C40.1118 24.484 40.3145 24.4627 40.5171 24.42C40.7305 24.3667 40.9171 24.292 41.0771 24.196C41.2478 24.1 41.3811 23.9773 41.4771 23.828C41.5838 23.6787 41.6371 23.5027 41.6371 23.3C41.6371 22.9587 41.5038 22.692 41.2371 22.5C40.9811 22.2973 40.6558 22.1267 40.2611 21.988C39.8665 21.8493 39.4398 21.7107 38.9811 21.572C38.5225 21.4333 38.0958 21.2467 37.7011 21.012C37.3065 20.7773 36.9758 20.468 36.7091 20.084C36.4531 19.7 36.3251 19.1933 36.3251 18.564C36.3251 17.956 36.4425 17.4227 36.6771 16.964C36.9225 16.5053 37.2425 16.1213 37.6371 15.812C38.0425 15.5027 38.5065 15.2733 39.0291 15.124C39.5518 14.964 40.0905 14.884 40.6451 14.884C41.2851 14.884 41.9038 14.9747 42.5011 15.156C43.0985 15.3373 43.6371 15.6413 44.1171 16.068L42.4051 17.94ZM57.1446 22.132C57.1446 22.804 57.0433 23.4227 56.8406 23.988C56.638 24.5533 56.334 25.044 55.9286 25.46C55.534 25.876 55.038 26.2013 54.4406 26.436C53.8433 26.6707 53.1553 26.788 52.3766 26.788C51.5873 26.788 50.894 26.6707 50.2966 26.436C49.6993 26.2013 49.198 25.876 48.7926 25.46C48.398 25.044 48.0993 24.5533 47.8966 23.988C47.694 23.4227 47.5926 22.804 47.5926 22.132V15.172H50.0886V22.036C50.0886 22.388 50.142 22.7133 50.2486 23.012C50.366 23.3107 50.526 23.572 50.7286 23.796C50.9313 24.0093 51.1713 24.18 51.4486 24.308C51.7366 24.4253 52.046 24.484 52.3766 24.484C52.7073 24.484 53.0113 24.4253 53.2886 24.308C53.566 24.18 53.806 24.0093 54.0086 23.796C54.2113 23.572 54.366 23.3107 54.4726 23.012C54.59 22.7133 54.6486 22.388 54.6486 22.036V15.172H57.1446V22.132ZM61.052 15.172H64.828L67.436 22.564H67.468L70.092 15.172H73.852V26.5H71.356V17.812H71.324L68.348 26.5H66.444L63.58 17.812H63.548V26.5H61.052V15.172ZM77.8574 15.172H85.5534V17.476H80.3534V19.588H85.2654V21.892H80.3534V24.196H85.8414V26.5H77.8574V15.172Z" fill="#F0F0F0" fill-opacity="0.9"/>
<path d="M112.5 24V27.3333C112.5 27.7754 112.324 28.1993 112.012 28.5118C111.699 28.8244 111.275 29 110.833 29H99.1667C98.7246 29 98.3007 28.8244 97.9882 28.5118C97.6756 28.1993 97.5 27.7754 97.5 27.3333V24" stroke="#61DAFB" stroke-width="1.5" stroke-linecap="round" stroke-linejoin="round"/>
<path d="M100.833 19.8333L105 23.9999L109.167 19.8333" stroke="#61DAFB" stroke-width="1.5" stroke-linecap="round" stroke-linejoin="round"/>
<path d="M105 24V14" stroke="#61DAFB" stroke-width="1.5" stroke-linecap="round" stroke-linejoin="round"/>
</g>
<rect x="0.5" y="0.5" width="122" height="39" rx="3.5" stroke="#61DAFB" stroke-opacity="0.6"/>
<defs>
<clipPath id="clip0_1356_169111">
<rect width="123" height="40" rx="4" fill="white"/>
</clipPath>
</defs>
</svg>
