<svg width="18" height="18" viewBox="0 0 18 18" fill="none" xmlns="http://www.w3.org/2000/svg">
<path d="M6.27342 16.7743C5.83989 16.8824 5.40712 16.9256 4.97554 16.9256C3.3767 16.9256 1.91846 16.256 1.19625 15.1616L1.19615 15.1615C0.236369 13.6999 -0.0808924 10.6208 3.05183 8.3522C3.07264 8.33713 3.09972 8.33376 3.12359 8.34328C3.14746 8.35279 3.1648 8.37387 3.16953 8.39913C3.23286 8.73697 3.36016 9.20391 3.44518 9.48025C3.45456 9.51071 3.44365 9.54377 3.41799 9.56268C3.01835 9.85715 2.3871 10.4468 1.9881 11.2448L1.98785 11.2453C1.42331 12.3534 1.48587 13.4569 2.15444 14.4809C2.61042 15.1646 3.33686 15.5823 4.28036 15.7082C5.43913 15.8556 6.59836 15.6451 7.71733 15.054L7.71747 15.0539C9.35438 14.1934 10.4462 13.1703 11.1644 11.7798C10.9799 11.5764 10.8599 11.2973 10.8389 10.9812L10.8387 10.9786L10.8387 10.9786C10.816 10.2757 11.3604 9.68507 12.0648 9.66234L12.0672 9.66226V9.6623H12.1099C12.7908 9.6623 13.3583 10.2067 13.381 10.8883M6.27342 16.7743L13.306 10.8908M6.27342 16.7743C9.01587 16.2381 11.0996 14.6134 12.2875 12.1994M6.27342 16.7743L12.238 12.1298M13.381 10.8883L13.306 10.8908M13.381 10.8883C13.381 10.8883 13.381 10.8883 13.381 10.8883L13.306 10.8908M13.381 10.8883C13.4032 11.5537 12.9257 12.112 12.2875 12.1994M13.306 10.8908C13.3274 11.5317 12.8575 12.0656 12.238 12.1298M12.2875 12.1994C12.2935 12.1871 12.2995 12.1749 12.3055 12.1626L12.238 12.1298M12.2875 12.1994C12.2737 12.2012 12.2597 12.2029 12.2458 12.2044L12.238 12.1298M16.0775 11.7093C16.4334 12.5888 16.4108 13.4414 16.0378 14.1671C15.4526 15.2744 14.4743 15.8784 13.1779 15.8784C12.3366 15.8784 11.5355 15.6255 11.1153 15.4364C11.0881 15.4241 11.0562 15.4292 11.0341 15.4493C10.8017 15.6606 10.3768 16.0006 10.0797 16.2128C10.058 16.2283 10.0462 16.2542 10.0486 16.2808C10.0511 16.3073 10.0675 16.3306 10.0917 16.3418C11.0182 16.7727 11.9688 17.011 12.8788 17.011C14.9565 17.011 16.4996 15.864 17.0896 14.7058L17.0899 14.7053C17.7237 13.4374 17.6747 11.2689 16.0541 9.43183C14.4151 7.51263 12.0012 6.45816 9.24759 6.45816H8.95118C8.73846 6.07142 8.31985 5.81729 7.85918 5.81729H7.81643V5.81725L7.81401 5.81733C7.10982 5.84006 6.56543 6.43073 6.58805 7.13369L6.58805 7.13378C6.61079 7.8153 7.17823 8.35976 7.85918 8.35976H7.90186V8.35984L7.90527 8.35968C8.38693 8.33777 8.8049 8.0418 8.9972 7.63345H9.33303C10.9413 7.63345 12.4649 8.09882 13.8415 9.00949L13.8415 9.00953C14.8979 9.70678 15.656 10.6134 16.077 11.7081L16.077 11.7081L16.0775 11.7093ZM8.84179 0.92561C6.88223 0.92561 5.08437 2.33945 4.37072 4.41488C3.38531 7.1576 4.01897 9.79172 5.20782 11.8706C5.1067 12.035 5.05105 12.2673 5.07153 12.4976C5.09544 13.1781 5.66238 13.7213 6.34258 13.7213H6.38533V13.7213L6.38774 13.7213C7.092 13.6986 7.63639 13.1079 7.61371 12.405L7.6137 12.4049C7.59104 11.7233 7.02351 11.1789 6.34258 11.1789H6.29989H6.2988C6.27789 11.1789 6.24808 11.1789 6.21765 11.1819C6.20736 11.183 6.19624 11.1844 6.18472 11.1865C5.33886 9.76147 4.98886 8.21302 5.11445 6.5387L5.1145 6.53808C5.19891 5.27082 5.62092 4.17509 6.35806 3.26942L6.35807 3.26943L6.35892 3.26834C6.65826 2.8864 7.09988 2.59929 7.57009 2.40491C8.03995 2.21066 8.53279 2.11133 8.92891 2.10089C10.0243 2.08032 10.8097 2.75064 11.3335 3.5799C11.858 4.41004 12.1104 5.38564 12.1418 5.93922C12.1437 5.97251 12.1673 6.00056 12.1998 6.00806C12.4735 6.0712 12.9402 6.21963 13.261 6.32656C13.2848 6.33449 13.311 6.33 13.3308 6.31459C13.3506 6.29918 13.3614 6.27489 13.3595 6.24987C13.101 2.76035 10.941 0.92561 8.84179 0.92561Z" fill="#764ABC" stroke="white" stroke-width="0.15" stroke-linejoin="round"/>
</svg>
