<svg width="14" height="22" viewBox="0 0 14 22" fill="none" xmlns="http://www.w3.org/2000/svg">
<path d="M5.5 0.5H3.25C2.65326 0.5 2.08097 0.737053 1.65901 1.15901C1.23705 1.58097 1 2.15326 1 2.75V19.25C1 19.8467 1.23705 20.419 1.65901 20.841C2.08097 21.2629 2.65326 21.5 3.25 21.5H10.75C11.3467 21.5 11.919 21.2629 12.341 20.841C12.7629 20.419 13 19.8467 13 19.25V2.75C13 2.15326 12.7629 1.58097 12.341 1.15901C11.919 0.737053 11.3467 0.5 10.75 0.5H8.5M5.5 0.5V2H8.5V0.5M5.5 0.5H8.5M5.5 19.25H8.5" stroke="white" stroke-linecap="round" stroke-linejoin="round"/>
</svg>
